ISO-10303-21;
HEADER;
FILE_DESCRIPTION (( 'STEP AP203' ),
    '1' );
FILE_NAME ('fan_Default_sldprt.STEP',
    '2024-11-02T09:52:50',
    ( '' ),
    ( '' ),
    'SwSTEP 2.0',
    'SolidWorks 2024',
    '' );
FILE_SCHEMA (( 'CONFIG_CONTROL_DESIGN' ));
ENDSEC;

DATA;
#1 = DIRECTION ( 'NONE',  ( 0.000000000000000000, 0.000000000000000000, -1.000000000000000000 ) ) ;
#2 = DIRECTION ( 'NONE',  ( 0.000000000000000000, -1.000000000000000000, 0.000000000000000000 ) ) ;
#3 = ORIENTED_EDGE ( 'NONE', *, *, #785, .F. ) ;
#4 = EDGE_CURVE ( 'NONE', #646, #656, #44, .T. ) ;
#5 = FACE_OUTER_BOUND ( 'NONE', #502, .T. ) ;
#6 = B_SPLINE_CURVE_WITH_KNOTS ( 'NONE', 2,
 ( #306, #778, #101 ),
 .UNSPECIFIED., .F., .F.,
 ( 3, 3 ),
 ( 0.003532020952217810109, 1.000000000000000000 ),
 .UNSPECIFIED. ) ;
#7 = CARTESIAN_POINT ( 'NONE',  ( -44.95066903477555798, 13.99881312307682535, 43.51303432714274777 ) ) ;
#8 = ORIENTED_EDGE ( 'NONE', *, *, #325, .F. ) ;
#9 = AXIS2_PLACEMENT_3D ( 'NONE', #107, #859, #954 ) ;
#10 = AXIS2_PLACEMENT_3D ( 'NONE', #495, #354, #648 ) ;
#11 = APPROVAL ( #735, 'UNSPECIFIED' ) ;
#12 = DIRECTION ( 'NONE',  ( -0.5589199576723008489, 0.1290368396117766159, -0.8191202444931989790 ) ) ;
#13 = EDGE_CURVE ( 'NONE', #361, #470, #335, .T. ) ;
#14 = VECTOR ( 'NONE', #41, 1000.000000000000114 ) ;
#15 = AXIS2_PLACEMENT_3D ( 'NONE', #226, #449, #533 ) ;
#16 = CC_DESIGN_SECURITY_CLASSIFICATION ( #78, ( #825 ) ) ;
#17 = VECTOR ( 'NONE', #956, 1000.000000000000114 ) ;
#18 = CARTESIAN_POINT ( 'NONE',  ( -63.11437014178093818, -14.02885145544509626, -635.0000097653668263 ) ) ;
#19 = ORIENTED_EDGE ( 'NONE', *, *, #876, .F. ) ;
#20 = VERTEX_POINT ( 'NONE', #961 ) ;
#21 = DIRECTION ( 'NONE',  ( -0.9743700647852366892, 0.2249510543438584254, 0.000000000000000000 ) ) ;
#22 = AXIS2_PLACEMENT_3D ( 'NONE', #249, #243, #780 ) ;
#23 = EDGE_CURVE ( 'NONE', #401, #761, #235, .T. ) ;
#24 = LINE ( 'NONE', #489, #441 ) ;
#25 = PLANE ( 'NONE',  #753 ) ;
#26 = ORIENTED_EDGE ( 'NONE', *, *, #479, .T. ) ;
#27 = ORIENTED_EDGE ( 'NONE', *, *, #757, .T. ) ;
#28 = CARTESIAN_POINT ( 'NONE',  ( -63.78922330481243108, -11.10574126108937421, -635.0000097653668263 ) ) ;
#29 = DIRECTION ( 'NONE',  ( 0.000000000000000000, -1.000000000000000000, 0.000000000000000000 ) ) ;
#30 = VERTEX_POINT ( 'NONE', #164 ) ;
#31 = ORIENTED_EDGE ( 'NONE', *, *, #709, .T. ) ;
#32 = APPROVAL_ROLE ( '' ) ;
#33 =( BOUNDED_CURVE ( )  B_SPLINE_CURVE ( 3, ( #905, #418, #59, #889 ),
 .UNSPECIFIED., .F., .F. ) 
 B_SPLINE_CURVE_WITH_KNOTS ( ( 4, 4 ),
 ( 0.6424385690356229084, 1.570796326794895004 ),
 .UNSPECIFIED. ) 
 CURVE ( )  GEOMETRIC_REPRESENTATION_ITEM ( )  RATIONAL_B_SPLINE_CURVE ( ( 1.000000000000000000, 0.9294596491155999729, 0.9294596491155999729, 1.000000000000000000 ) ) 
 REPRESENTATION_ITEM ( '' )  );
#34 = DIRECTION ( 'NONE',  ( -0.9743700647852366892, -0.2249510543438584254, 0.000000000000000000 ) ) ;
#35 = CARTESIAN_POINT ( 'NONE',  ( -4.448795604517613356, 2.594075942694542558, -635.0000097653668263 ) ) ;
#36 = EDGE_LOOP ( 'NONE', ( #990, #818, #1004, #27 ) ) ;
#37 = AXIS2_PLACEMENT_3D ( 'NONE', #605, #232, #929 ) ;
#38 = ORIENTED_EDGE ( 'NONE', *, *, #150, .T. ) ;
#39 = AXIS2_PLACEMENT_3D ( 'NONE', #927, #454, #62 ) ;
#40 = CARTESIAN_POINT ( 'NONE',  ( -6.034495712661663451E-05, 31.00731804264020397, 57.49999023463318792 ) ) ;
#41 = DIRECTION ( 'NONE',  ( 0.5589199576723008489, 0.1290368396117766159, 0.8191202444931989790 ) ) ;
#42 = VERTEX_POINT ( 'NONE', #802 ) ;
#43 = PERSON_AND_ORGANIZATION_ROLE ( 'creator' ) ;
#44 = B_SPLINE_CURVE_WITH_KNOTS ( 'NONE', 2,
 ( #789, #91, #645 ),
 .UNSPECIFIED., .F., .F.,
 ( 3, 3 ),
 ( 0.003532020952217810109, 1.000000000000000000 ),
 .UNSPECIFIED. ) ;
#45 = CARTESIAN_POINT ( 'NONE',  ( 3.773821751571771799, -0.3290342516611675650, 634.9999902346331737 ) ) ;
#46 = DIRECTION ( 'NONE',  ( 0.2249510543438584531, 0.9743700647852368002, 0.000000000000000000 ) ) ;
#47 = ORIENTED_EDGE ( 'NONE', *, *, #557, .F. ) ;
#48 = APPROVAL_ROLE ( '' ) ;
#49 = VECTOR ( 'NONE', #562, 1000.000000000000000 ) ;
#50 = DIRECTION ( 'NONE',  ( 0.000000000000000000, -1.000000000000000000, 0.000000000000000000 ) ) ;
#51 = DIRECTION ( 'NONE',  ( 0.000000000000000000, -1.000000000000000000, 0.000000000000000000 ) ) ;
#52 = ORIENTED_EDGE ( 'NONE', *, *, #613, .T. ) ;
#53 = VECTOR ( 'NONE', #721, 1000.000000000000114 ) ;
#54 = EDGE_CURVE ( 'NONE', #338, #60, #182, .T. ) ;
#55 = EDGE_CURVE ( 'NONE', #740, #293, #413, .T. ) ;
#56 = CARTESIAN_POINT ( 'NONE',  ( -6.034495713365836499E-05, -28.99268195735979958, -9.765366813010488306E-06 ) ) ;
#57 = CYLINDRICAL_SURFACE ( 'NONE', #703, 57.49999999999999289 ) ;
#58 = ORIENTED_EDGE ( 'NONE', *, *, #399, .T. ) ;
#59 = CARTESIAN_POINT ( 'NONE',  ( 18.46378662494438316, -3.720479869674667039, 57.49999023463319503 ) ) ;
#60 = VERTEX_POINT ( 'NONE', #564 ) ;
#61 = LINE ( 'NONE', #528, #786 ) ;
#62 = DIRECTION ( 'NONE',  ( 0.000000000000000000, 0.000000000000000000, 1.000000000000000000 ) ) ;
#63 = ORIENTED_EDGE ( 'NONE', *, *, #682, .T. ) ;
#64 = VECTOR ( 'NONE', #760, 1000.000000000000114 ) ;
#65 = AXIS2_PLACEMENT_3D ( 'NONE', #320, #629, #617 ) ;
#66 = LINE ( 'NONE', #848, #83 ) ;
#67 = EDGE_LOOP ( 'NONE', ( #538, #52, #692, #110 ) ) ;
#68 = CARTESIAN_POINT ( 'NONE',  ( 46.38775946881116852, -7.088324645797167811, 33.97674954044934026 ) ) ;
#69 = EDGE_CURVE ( 'NONE', #60, #30, #909, .T. ) ;
#70 = DIRECTION ( 'NONE',  ( 0.000000000000000000, 0.000000000000000000, 1.000000000000000000 ) ) ;
#71 = ORIENTED_EDGE ( 'NONE', *, *, #80, .T. ) ;
#72 = DIRECTION ( 'NONE',  ( 0.000000000000000000, -1.000000000000000000, 0.000000000000000000 ) ) ;
#73 = AXIS2_PLACEMENT_3D ( 'NONE', #518, #917, #989 ) ;
#74 = DIRECTION ( 'NONE',  ( 0.2249510543438584531, 0.9743700647852368002, 0.000000000000000000 ) ) ;
#75 = ORIENTED_EDGE ( 'NONE', *, *, #89, .F. ) ;
#76 = AXIS2_PLACEMENT_3D ( 'NONE', #146, #72, #681 ) ;
#77 = DATE_AND_TIME ( #480, #684 ) ;
#78 = SECURITY_CLASSIFICATION ( '', '', #898 ) ;
#79 = CARTESIAN_POINT ( 'NONE',  ( -6.034495713365836499E-05, 3.621147404865752595, -57.50000976536681918 ) ) ;
#80 = EDGE_CURVE ( 'NONE', #42, #82, #573, .T. ) ;
#81 = CARTESIAN_POINT ( 'NONE',  ( 54.21727040076597604, 13.05929215840665947, -19.15023291834436492 ) ) ;
#82 = VERTEX_POINT ( 'NONE', #127 ) ;
#83 = VECTOR ( 'NONE', #153, 1000.000000000000114 ) ;
#84 = DIRECTION ( 'NONE',  ( 0.000000000000000000, -1.000000000000000000, 0.000000000000000000 ) ) ;
#85 = CARTESIAN_POINT ( 'NONE',  ( 63.78910261489836842, -11.10574126108942039, 604.9999902346332874 ) ) ;
#86 = CARTESIAN_POINT ( 'NONE',  ( 4.448674914603346409, 2.594075942694542558, 634.9999902346331737 ) ) ;
#87 = ORIENTED_EDGE ( 'NONE', *, *, #223, .T. ) ;
#88 = APPLICATION_PROTOCOL_DEFINITION ( 'international standard', 'config_control_design', 1994, #687 ) ;
#89 = EDGE_CURVE ( 'NONE', #525, #497, #578, .T. ) ;
#90 = LINE ( 'NONE', #180, #698 ) ;
#91 = CARTESIAN_POINT ( 'NONE',  ( 95.39520080541645086, 22.56596646522234906, -310.0933940672753124 ) ) ;
#92 = ORIENTED_EDGE ( 'NONE', *, *, #662, .T. ) ;
#93 = PRODUCT ( 'fan_Default_sldprt', 'fan_Default_sldprt', '', ( #768 ) ) ;
#94 =( LENGTH_UNIT ( ) NAMED_UNIT ( * ) SI_UNIT ( .MILLI., .METRE. ) );
#95 = AXIS2_PLACEMENT_3D ( 'NONE', #844, #209, #594 ) ;
#96 = EDGE_CURVE ( 'NONE', #570, #561, #33, .T. ) ;
#97 = VECTOR ( 'NONE', #466, 1000.000000000000114 ) ;
#98 = FACE_BOUND ( 'NONE', #862, .T. ) ;
#99 = ORIENTED_EDGE ( 'NONE', *, *, #325, .T. ) ;
#100 = ORIENTED_EDGE ( 'NONE', *, *, #994, .F. ) ;
#101 = CARTESIAN_POINT ( 'NONE',  ( -44.12362025106058638, 10.72896154302780225, 594.1408752360491690 ) ) ;
#102 = DIRECTION ( 'NONE',  ( -0.9743700647852368002, -0.2249510543438583421, 0.000000000000000000 ) ) ;
#103 = LINE ( 'NONE', #18, #896 ) ;
#104 = EDGE_CURVE ( 'NONE', #450, #455, #461, .T. ) ;
#105 = ORIENTED_EDGE ( 'NONE', *, *, #483, .T. ) ;
#106 = VERTEX_POINT ( 'NONE', #191 ) ;
#107 = CARTESIAN_POINT ( 'NONE',  ( -4.448795604517578717, 2.594075942694547443, -585.0000097653668263 ) ) ;
#108 = DIRECTION ( 'NONE',  ( -0.000000000000000000, 1.000000000000000000, 0.000000000000000000 ) ) ;
#109 = CARTESIAN_POINT ( 'NONE',  ( -6.034495713365836499E-05, 21.00731804264020042, 24.99999023463318792 ) ) ;
#110 = ORIENTED_EDGE ( 'NONE', *, *, #246, .F. ) ;
#111 = LINE ( 'NONE', #958, #49 ) ;
#112 = CARTESIAN_POINT ( 'NONE',  ( 43.44864639811476792, 13.65207173738350299, -594.1408947667828215 ) ) ;
#113 = LINE ( 'NONE', #431, #276 ) ;
#114 = AXIS2_PLACEMENT_3D ( 'NONE', #155, #166, #21 ) ;
#115 = VECTOR ( 'NONE', #655, 1000.000000000000114 ) ;
#116 = VERTEX_POINT ( 'NONE', #983 ) ;
#117 = FACE_OUTER_BOUND ( 'NONE', #663, .T. ) ;
#118 = CARTESIAN_POINT ( 'NONE',  ( -6.034495713365836499E-05, 26.00731804264020042, -9.765366813010488306E-06 ) ) ;
#119 = ORIENTED_EDGE ( 'NONE', *, *, #634, .T. ) ;
#120 = COORDINATED_UNIVERSAL_TIME_OFFSET ( 5, 30, .AHEAD. ) ;
#121 = ADVANCED_FACE ( 'NONE', ( #828 ), #842, .F. ) ;
#122 = FACE_OUTER_BOUND ( 'NONE', #945, .T. ) ;
#123 = CARTESIAN_POINT ( 'NONE',  ( -44.12362025106058638, 10.72896154302780225, 594.1408752360491690 ) ) ;
#124 = ORIENTED_EDGE ( 'NONE', *, *, #987, .F. ) ;
#125 = EDGE_CURVE ( 'NONE', #388, #293, #362, .T. ) ;
#126 = FACE_OUTER_BOUND ( 'NONE', #148, .T. ) ;
#127 = CARTESIAN_POINT ( 'NONE',  ( -4.448795604517613356, 2.594075942694542558, -635.0000097653668263 ) ) ;
#128 = ORIENTED_EDGE ( 'NONE', *, *, #69, .F. ) ;
#129 = ORGANIZATION ( 'UNSPECIFIED', 'UNSPECIFIED', '' ) ;
#130 = DIRECTION ( 'NONE',  ( 0.2249510543438584254, -0.9743700647852366892, 0.000000000000000000 ) ) ;
#131 = DIRECTION ( 'NONE',  ( 0.000000000000000000, 0.000000000000000000, 1.000000000000000000 ) ) ;
#132 = VECTOR ( 'NONE', #626, 1000.000000000000114 ) ;
#133 = ORIENTED_EDGE ( 'NONE', *, *, #876, .T. ) ;
#134 = CARTESIAN_POINT ( 'NONE',  ( 63.11424945186687552, -14.02885145544514955, 604.9999902346332874 ) ) ;
#135 = FACE_OUTER_BOUND ( 'NONE', #782, .T. ) ;
#136 = ORIENTED_EDGE ( 'NONE', *, *, #336, .T. ) ;
#137 = AXIS2_PLACEMENT_3D ( 'NONE', #85, #386, #700 ) ;
#138 = CARTESIAN_POINT ( 'NONE',  ( -46.38788015872543724, -7.088324645797167811, -33.97676907118296441 ) ) ;
#139 = ORIENTED_EDGE ( 'NONE', *, *, #125, .T. ) ;
#140 = AXIS2_PLACEMENT_3D ( 'NONE', #421, #733, #969 ) ;
#141 = ADVANCED_FACE ( 'NONE', ( #589 ), #979, .F. ) ;
#142 = CARTESIAN_POINT ( 'NONE',  ( -6.034495713365836499E-05, -28.99268195735979958, 24.99999023463318792 ) ) ;
#143 = CARTESIAN_POINT ( 'NONE',  ( -6.034495712661663451E-05, 0.5422350814855805279, 57.49999023463318792 ) ) ;
#144 = ORIENTED_EDGE ( 'NONE', *, *, #356, .F. ) ;
#145 = EDGE_CURVE ( 'NONE', #231, #668, #113, .T. ) ;
#146 = CARTESIAN_POINT ( 'NONE',  ( -6.034495713365836499E-05, -18.99268195735979958, -9.765366813010488306E-06 ) ) ;
#147 = DIRECTION ( 'NONE',  ( 0.000000000000000000, 0.000000000000000000, 1.000000000000000000 ) ) ;
#148 = EDGE_LOOP ( 'NONE', ( #638, #290, #239, #880 ) ) ;
#149 = EDGE_CURVE ( 'NONE', #761, #401, #973, .T. ) ;
#150 = EDGE_CURVE ( 'NONE', #106, #604, #556, .T. ) ;
#151 = CARTESIAN_POINT ( 'NONE',  ( -6.034495712661663451E-05, 3.621147404865752595, 57.49999023463318792 ) ) ;
#152 = EDGE_CURVE ( 'NONE', #344, #238, #742, .T. ) ;
#153 = DIRECTION ( 'NONE',  ( 0.9743700647852366892, -0.2249510543438584254, 0.000000000000000000 ) ) ;
#154 = ORIENTED_EDGE ( 'NONE', *, *, #300, .T. ) ;
#155 = CARTESIAN_POINT ( 'NONE',  ( 4.448674914603310881, 2.594075942694547443, 584.9999902346331737 ) ) ;
#156 = APPROVAL_PERSON_ORGANIZATION ( #854, #730, #548 ) ;
#157 = PLANE ( 'NONE',  #298 ) ;
#158 = CARTESIAN_POINT ( 'NONE',  ( -6.034495713365836499E-05, 26.00731804264020042, -9.765366813010488306E-06 ) ) ;
#159 = ORIENTED_EDGE ( 'NONE', *, *, #483, .F. ) ;
#160 = AXIS2_PLACEMENT_3D ( 'NONE', #590, #74, #833 ) ;
#161 = CARTESIAN_POINT ( 'NONE',  ( 0.000000000000000000, 0.000000000000000000, 0.000000000000000000 ) ) ;
#162 = CYLINDRICAL_SURFACE ( 'NONE', #137, 30.00000000000000000 ) ;
#163 = DIRECTION ( 'NONE',  ( 0.000000000000000000, 0.000000000000000000, 1.000000000000000000 ) ) ;
#164 = CARTESIAN_POINT ( 'NONE',  ( -6.034495712937210045E-05, 31.00731804264020397, -35.00000976536681918 ) ) ;
#165 = ORIENTED_EDGE ( 'NONE', *, *, #815, .F. ) ;
#166 = DIRECTION ( 'NONE',  ( 0.2249510543438584531, 0.9743700647852368002, 0.000000000000000000 ) ) ;
#167 = EDGE_CURVE ( 'NONE', #492, #628, #285, .T. ) ;
#168 = CARTESIAN_POINT ( 'NONE',  ( 63.11424945186666946, -14.02885145544509626, 634.9999902346331737 ) ) ;
#169 = EDGE_LOOP ( 'NONE', ( #506, #394, #902, #376 ) ) ;
#170 = EDGE_LOOP ( 'NONE', ( #834, #178, #777, #702 ) ) ;
#171 = COORDINATED_UNIVERSAL_TIME_OFFSET ( 5, 30, .AHEAD. ) ;
#172 = EDGE_CURVE ( 'NONE', #628, #525, #275, .T. ) ;
#173 = VECTOR ( 'NONE', #130, 1000.000000000000114 ) ;
#174 = CARTESIAN_POINT ( 'NONE',  ( -6.034495712937210045E-05, -28.99268195735979958, 34.99999023463318792 ) ) ;
#175 = AXIS2_PLACEMENT_3D ( 'NONE', #299, #215, #606 ) ;
#176 = CARTESIAN_POINT ( 'NONE',  ( 46.15444499046233773, -9.085240536894779950, 34.29358062545045982 ) ) ;
#177 = ORIENTED_EDGE ( 'NONE', *, *, #152, .F. ) ;
#178 = ORIENTED_EDGE ( 'NONE', *, *, #634, .F. ) ;
#179 = PRODUCT_RELATED_PRODUCT_CATEGORY ( 'detail', '', ( #93 ) ) ;
#180 = CARTESIAN_POINT ( 'NONE',  ( -6.034495712661663451E-05, 31.00731804264020397, 57.49999023463318792 ) ) ;
#181 = CARTESIAN_POINT ( 'NONE',  ( -63.78922330481243108, -11.10574126108937421, -635.0000097653668263 ) ) ;
#182 = LINE ( 'NONE', #109, #97 ) ;
#183 = ORIENTED_EDGE ( 'NONE', *, *, #916, .F. ) ;
#184 = EDGE_CURVE ( 'NONE', #875, #509, #347, .T. ) ;
#185 = PLANE ( 'NONE',  #736 ) ;
#186 = CARTESIAN_POINT ( 'NONE',  ( 53.72985625356236739, 16.02567605929295169, -20.47795063635641455 ) ) ;
#187 = DIRECTION ( 'NONE',  ( 0.9743700647852368002, -0.2249510543438585641, 0.000000000000000000 ) ) ;
#188 = ORIENTED_EDGE ( 'NONE', *, *, #951, .F. ) ;
#189 = COORDINATED_UNIVERSAL_TIME_OFFSET ( 5, 30, .AHEAD. ) ;
#190 = CARTESIAN_POINT ( 'NONE',  ( 53.92419521407077099, 12.99163042019010206, -17.08762673836231727 ) ) ;
#191 = CARTESIAN_POINT ( 'NONE',  ( 63.78910261489816236, -11.10574126108937421, 634.9999902346331737 ) ) ;
#192 = EDGE_CURVE ( 'NONE', #238, #401, #381, .T. ) ;
#193 = ORIENTED_EDGE ( 'NONE', *, *, #363, .F. ) ;
#194 = ADVANCED_FACE ( 'NONE', ( #744 ), #57, .T. ) ;
#195 = DATE_AND_TIME ( #404, #724 ) ;
#196 = PLANE ( 'NONE',  #318 ) ;
#197 = DIRECTION ( 'NONE',  ( 0.000000000000000000, -1.000000000000000000, 0.000000000000000000 ) ) ;
#198 = ORIENTED_EDGE ( 'NONE', *, *, #709, .F. ) ;
#199 = CALENDAR_DATE ( 2024, 2, 11 ) ;
#200 = FACE_OUTER_BOUND ( 'NONE', #809, .T. ) ;
#201 = CARTESIAN_POINT ( 'NONE',  ( -63.78922330481262293, -11.10574126108942039, -605.0000097653667126 ) ) ;
#202 = ORIENTED_EDGE ( 'NONE', *, *, #295, .F. ) ;
#203 = AXIS2_PLACEMENT_3D ( 'NONE', #490, #108, #465 ) ;
#204 = CARTESIAN_POINT ( 'NONE',  ( 63.78910261489816236, -11.10574126108937421, 634.9999902346331737 ) ) ;
#205 = CARTESIAN_POINT ( 'NONE',  ( -46.15456568037661356, -9.085240536894779950, -34.29360015618407687 ) ) ;
#206 = EDGE_LOOP ( 'NONE', ( #830, #159, #277, #330, #257, #47, #547, #616 ) ) ;
#207 = CIRCLE ( 'NONE', #233, 35.00000000000000000 ) ;
#208 = DIRECTION ( 'NONE',  ( 0.9743700647852366892, 0.2249510543438584254, 0.000000000000000000 ) ) ;
#209 = DIRECTION ( 'NONE',  ( -0.2249510543438584531, -0.9743700647852368002, 0.000000000000000000 ) ) ;
#210 = VERTEX_POINT ( 'NONE', #123 ) ;
#211 = DIRECTION ( 'NONE',  ( -0.5589199576723008489, 0.1290368396117766159, -0.8191202444931989790 ) ) ;
#212 = DESIGN_CONTEXT ( 'detailed design', #687, 'design' ) ;
#213 = CARTESIAN_POINT ( 'NONE',  ( 44.12349956114631766, 10.72896154302780225, -594.1408947667828215 ) ) ;
#214 = ORIENTED_EDGE ( 'NONE', *, *, #23, .T. ) ;
#215 = DIRECTION ( 'NONE',  ( -1.000000000000000000, 0.000000000000000000, 0.000000000000000000 ) ) ;
#216 = FACE_OUTER_BOUND ( 'NONE', #170, .T. ) ;
#217 = ORIENTED_EDGE ( 'NONE', *, *, #300, .F. ) ;
#218 = EDGE_CURVE ( 'NONE', #470, #534, #207, .T. ) ;
#219 = AXIS2_PLACEMENT_3D ( 'NONE', #665, #350, #131 ) ;
#220 = DIRECTION ( 'NONE',  ( 0.000000000000000000, -0.7071067811865489050, -0.7071067811865460184 ) ) ;
#221 = DIRECTION ( 'NONE',  ( 0.000000000000000000, 1.000000000000000000, 0.000000000000000000 ) ) ;
#222 = ORIENTED_EDGE ( 'NONE', *, *, #745, .T. ) ;
#223 = EDGE_CURVE ( 'NONE', #710, #486, #355, .T. ) ;
#224 = EDGE_CURVE ( 'NONE', #361, #338, #754, .T. ) ;
#225 = CARTESIAN_POINT ( 'NONE',  ( -6.034495713365836499E-05, -28.99268195735979958, -35.00000976536681918 ) ) ;
#226 = CARTESIAN_POINT ( 'NONE',  ( -63.78922330481262293, -11.10574126108942039, -605.0000097653667126 ) ) ;
#227 = EDGE_LOOP ( 'NONE', ( #459, #565, #795, #672 ) ) ;
#228 =( BOUNDED_CURVE ( )  B_SPLINE_CURVE ( 3, ( #391, #619, #467, #713 ),
 .UNSPECIFIED., .F., .F. ) 
 B_SPLINE_CURVE_WITH_KNOTS ( ( 4, 4 ),
 ( 1.570796326794895004, 2.777460908913290005 ),
 .UNSPECIFIED. ) 
 CURVE ( )  GEOMETRIC_REPRESENTATION_ITEM ( )  RATIONAL_B_SPLINE_CURVE ( ( 1.000000000000000000, 0.8822996553329799374, 0.8822996553329799374, 1.000000000000000000 ) ) 
 REPRESENTATION_ITEM ( '' )  );
#229 = CARTESIAN_POINT ( 'NONE',  ( 3.394780267827856690, 4.404908116298996923, -0.5257774545813730382 ) ) ;
#230 = CARTESIAN_POINT ( 'NONE',  ( 46.03657130299997391, -10.08615879259181725, 34.45109393988928304 ) ) ;
#231 = VERTEX_POINT ( 'NONE', #294 ) ;
#232 = DIRECTION ( 'NONE',  ( 0.000000000000000000, 1.000000000000000000, 0.000000000000000000 ) ) ;
#233 = AXIS2_PLACEMENT_3D ( 'NONE', #281, #585, #901 ) ;
#234 = VECTOR ( 'NONE', #84, 1000.000000000000000 ) ;
#235 = CIRCLE ( 'NONE', #396, 52.50000000000000711 ) ;
#236 = LINE ( 'NONE', #28, #428 ) ;
#237 = CARTESIAN_POINT ( 'NONE',  ( 53.89483078595507237, 15.03300367653282166, -20.04509130142216478 ) ) ;
#238 = VERTEX_POINT ( 'NONE', #851 ) ;
#239 = ORIENTED_EDGE ( 'NONE', *, *, #994, .T. ) ;
#240 = FACE_OUTER_BOUND ( 'NONE', #206, .T. ) ;
#241 = PRODUCT_DEFINITION_SHAPE ( 'NONE', 'NONE',  #883 ) ;
#242 = CARTESIAN_POINT ( 'NONE',  ( -6.034495712692280643E-05, -28.99268195735979958, -52.50000976536681918 ) ) ;
#243 = DIRECTION ( 'NONE',  ( 0.000000000000000000, 1.000000000000000000, 0.000000000000000000 ) ) ;
#244 = ORIENTED_EDGE ( 'NONE', *, *, #336, .F. ) ;
#245 = VERTEX_POINT ( 'NONE', #151 ) ;
#246 = EDGE_CURVE ( 'NONE', #455, #773, #826, .T. ) ;
#247 = PERSON_AND_ORGANIZATION_ROLE ( 'design_owner' ) ;
#248 = CARTESIAN_POINT ( 'NONE',  ( -6.034495713365836499E-05, -28.99268195735979958, 52.49999023463318792 ) ) ;
#249 = CARTESIAN_POINT ( 'NONE',  ( -6.034495713365836499E-05, 21.00731804264020042, -9.765366813010488306E-06 ) ) ;
#250 = ORIENTED_EDGE ( 'NONE', *, *, #576, .T. ) ;
#251 = ORIENTED_EDGE ( 'NONE', *, *, #167, .T. ) ;
#252 = VECTOR ( 'NONE', #920, 1000.000000000000114 ) ;
#253 = CC_DESIGN_APPROVAL ( #730, ( #883 ) ) ;
#254 = CARTESIAN_POINT ( 'NONE',  ( -6.034495713059674746E-05, 21.00731804264020042, -25.00000976536681563 ) ) ;
#255 = LINE ( 'NONE', #400, #132 ) ;
#256 = EDGE_LOOP ( 'NONE', ( #217, #165, #640, #933 ) ) ;
#257 = ORIENTED_EDGE ( 'NONE', *, *, #184, .F. ) ;
#258 = ADVANCED_FACE ( 'NONE', ( #371 ), #874, .F. ) ;
#259 = AXIS2_PLACEMENT_3D ( 'NONE', #691, #529, #852 ) ;
#260 = EDGE_CURVE ( 'NONE', #509, #740, #305, .T. ) ;
#261 = CALENDAR_DATE ( 2024, 2, 11 ) ;
#262 = FACE_OUTER_BOUND ( 'NONE', #756, .T. ) ;
#263 = CARTESIAN_POINT ( 'NONE',  ( -93.02032524836974403, -17.85427289140519846, -102.3185401938750232 ) ) ;
#264 = CARTESIAN_POINT ( 'NONE',  ( 92.34535139542396109, -20.77738308576090276, 102.3185206631413990 ) ) ;
#265 = ORIENTED_EDGE ( 'NONE', *, *, #295, .T. ) ;
#266 = APPROVAL_DATE_TIME ( #647, #716 ) ;
#267 = EDGE_CURVE ( 'NONE', #231, #534, #835, .T. ) ;
#268 = LINE ( 'NONE', #660, #415 ) ;
#269 = EDGE_CURVE ( 'NONE', #796, #875, #532, .T. ) ;
#270 = CARTESIAN_POINT ( 'NONE',  ( -46.38788015872543724, -7.088324645797167811, -33.97676907118296441 ) ) ;
#271 = ORIENTED_EDGE ( 'NONE', *, *, #980, .F. ) ;
#272 = DATE_AND_TIME ( #199, #380 ) ;
#273 = CARTESIAN_POINT ( 'NONE',  ( 44.12349956114641714, 10.72896154302737237, -594.1408947667828215 ) ) ;
#274 = VECTOR ( 'NONE', #808, 1000.000000000000000 ) ;
#275 = LINE ( 'NONE', #569, #14 ) ;
#276 = VECTOR ( 'NONE', #661, 1000.000000000000000 ) ;
#277 = ORIENTED_EDGE ( 'NONE', *, *, #55, .F. ) ;
#278 = PERSON_AND_ORGANIZATION ( #918, #129 ) ;
#279 = EDGE_CURVE ( 'NONE', #497, #116, #718, .T. ) ;
#280 = CYLINDRICAL_SURFACE ( 'NONE', #555, 50.00000000000002132 ) ;
#281 = CARTESIAN_POINT ( 'NONE',  ( -6.034495713365836499E-05, -28.99268195735979958, -9.765366813010488306E-06 ) ) ;
#282 = ORIENTED_EDGE ( 'NONE', *, *, #841, .F. ) ;
#283 = ADVANCED_FACE ( 'NONE', ( #382 ), #601, .T. ) ;
#284 = CARTESIAN_POINT ( 'NONE',  ( -43.44876708802902954, 13.65207173738350299, 594.1408752360491690 ) ) ;
#285 = LINE ( 'NONE', #895, #274 ) ;
#286 = ORIENTED_EDGE ( 'NONE', *, *, #145, .F. ) ;
#287 =( BOUNDED_CURVE ( )  B_SPLINE_CURVE ( 3, ( #312, #949, #637, #776 ),
 .UNSPECIFIED., .F., .F. ) 
 B_SPLINE_CURVE_WITH_KNOTS ( ( 4, 4 ),
 ( 0.6424385690356229084, 1.570796326794895004 ),
 .UNSPECIFIED. ) 
 CURVE ( )  GEOMETRIC_REPRESENTATION_ITEM ( )  RATIONAL_B_SPLINE_CURVE ( ( 1.000000000000000000, 0.9294596491155999729, 0.9294596491155999729, 1.000000000000000000 ) ) 
 REPRESENTATION_ITEM ( '' )  );
#288 = DIRECTION ( 'NONE',  ( 0.000000000000000000, 0.000000000000000000, 1.000000000000000000 ) ) ;
#289 = PLANE ( 'NONE',  #592 ) ;
#290 = ORIENTED_EDGE ( 'NONE', *, *, #145, .T. ) ;
#291 = DIRECTION ( 'NONE',  ( -0.2249510543438584531, 0.9743700647852368002, 0.000000000000000000 ) ) ;
#292 = FACE_OUTER_BOUND ( 'NONE', #952, .T. ) ;
#293 = VERTEX_POINT ( 'NONE', #991 ) ;
#294 = CARTESIAN_POINT ( 'NONE',  ( -6.034495713059674746E-05, -18.99268195735979958, -25.00000976536681563 ) ) ;
#295 = EDGE_CURVE ( 'NONE', #388, #303, #673, .T. ) ;
#296 = CARTESIAN_POINT ( 'NONE',  ( -92.34547208533824403, -20.77738308576090276, -102.3185401938750232 ) ) ;
#297 = ORIENTED_EDGE ( 'NONE', *, *, #731, .T. ) ;
#298 = AXIS2_PLACEMENT_3D ( 'NONE', #625, #463, #944 ) ;
#299 = CARTESIAN_POINT ( 'NONE',  ( -6.034495713365836499E-05, -23.99268195735979603, 52.49999023463318792 ) ) ;
#300 = EDGE_CURVE ( 'NONE', #344, #761, #824, .T. ) ;
#301 = TOROIDAL_SURFACE ( 'NONE', #477, 52.50000000000000711, 5.000000000000000000 ) ;
#302 = FACE_OUTER_BOUND ( 'NONE', #351, .T. ) ;
#303 = VERTEX_POINT ( 'NONE', #68 ) ;
#304 = AXIS2_PLACEMENT_3D ( 'NONE', #161, #389, #535 ) ;
#305 = CIRCLE ( 'NONE', #953, 30.00000000000001421 ) ;
#306 = CARTESIAN_POINT ( 'NONE',  ( -54.21739109068023765, 13.05929215840665947, 19.15021338761073721 ) ) ;
#307 = CARTESIAN_POINT ( 'NONE',  ( -6.034495713365836499E-05, -18.99268195735979958, 24.99999023463318792 ) ) ;
#308 = DIRECTION ( 'NONE',  ( 0.2249510543438584254, 0.9743700647852366892, 0.000000000000000000 ) ) ;
#309 = ORIENTED_EDGE ( 'NONE', *, *, #267, .F. ) ;
#310 = DIRECTION ( 'NONE',  ( 0.000000000000000000, 1.000000000000000000, 0.000000000000000000 ) ) ;
#311 = DIRECTION ( 'NONE',  ( 0.2249510543438584531, 0.9743700647852368002, 0.000000000000000000 ) ) ;
#312 = CARTESIAN_POINT ( 'NONE',  ( -46.03669199291422842, -10.08615879259181725, -34.45111347062291429 ) ) ;
#313 = ORIENTED_EDGE ( 'NONE', *, *, #916, .T. ) ;
#314 = CARTESIAN_POINT ( 'NONE',  ( -54.21739109068023765, 13.05929215840665947, 19.15021338761073721 ) ) ;
#315 = CARTESIAN_POINT ( 'NONE',  ( 41.27709124834412791, -8.987346241675247427, 27.47587966722954178 ) ) ;
#316 = CARTESIAN_POINT ( 'NONE',  ( -6.034495713059674746E-05, 21.00731804264020042, -25.00000976536681563 ) ) ;
#317 = DIRECTION ( 'NONE',  ( 0.000000000000000000, 0.000000000000000000, 1.000000000000000000 ) ) ;
#318 = AXIS2_PLACEMENT_3D ( 'NONE', #417, #888, #420 ) ;
#319 = EDGE_LOOP ( 'NONE', ( #327, #957, #26, #136, #71, #58, #87, #766 ) ) ;
#320 = CARTESIAN_POINT ( 'NONE',  ( -4.069754120773698247, 1.481797921943284191, 0.5257579238477469996 ) ) ;
#321 = LOCAL_TIME ( 15, 22, 50.00000000000000000, #571 ) ;
#322 = CARTESIAN_POINT ( 'NONE',  ( -43.44876708802897269, 13.65207173738350299, 594.1408752360491690 ) ) ;
#323 = B_SPLINE_CURVE_WITH_KNOTS ( 'NONE', 3,
 ( #871, #237, #334, #540 ),
 .UNSPECIFIED., .F., .F.,
 ( 4, 4 ),
 ( 7.818293051731879785E-19, 0.0003286311052997659956 ),
 .UNSPECIFIED. ) ;
#324 = DIRECTION ( 'NONE',  ( -0.9743700647852366892, -0.2249510543438584254, 0.000000000000000000 ) ) ;
#325 = EDGE_CURVE ( 'NONE', #656, #326, #680, .T. ) ;
#326 = VERTEX_POINT ( 'NONE', #988 ) ;
#327 = ORIENTED_EDGE ( 'NONE', *, *, #434, .T. ) ;
#328 = DIRECTION ( 'NONE',  ( 0.2249510543438584531, -0.9743700647852368002, 0.000000000000000000 ) ) ;
#329 = DIRECTION ( 'NONE',  ( 0.000000000000000000, 1.000000000000000000, 0.000000000000000000 ) ) ;
#330 = ORIENTED_EDGE ( 'NONE', *, *, #260, .F. ) ;
#331 = ORIENTED_EDGE ( 'NONE', *, *, #893, .F. ) ;
#332 = CARTESIAN_POINT ( 'NONE',  ( -6.034495713365836499E-05, -23.99268195735979603, -9.765366813010488306E-06 ) ) ;
#333 = ADVANCED_FACE ( 'NONE', ( #517 ), #301, .T. ) ;
#334 = CARTESIAN_POINT ( 'NONE',  ( 54.05741013840967213, 14.04396945552996101, -19.60282277320466093 ) ) ;
#335 = LINE ( 'NONE', #781, #17 ) ;
#336 = EDGE_CURVE ( 'NONE', #950, #42, #959, .T. ) ;
#337 = AXIS2_PLACEMENT_3D ( 'NONE', #158, #935, #412 ) ;
#338 = VERTEX_POINT ( 'NONE', #750 ) ;
#339 = APPROVAL_STATUS ( 'not_yet_approved' ) ;
#340 = DIRECTION ( 'NONE',  ( 0.000000000000000000, -0.9520848723469902408, -0.3058339350824485492 ) ) ;
#341 = VECTOR ( 'NONE', #722, 1000.000000000000000 ) ;
#342 = CARTESIAN_POINT ( 'NONE',  ( 4.448674914603310881, 2.594075942694547443, 584.9999902346331737 ) ) ;
#343 = ORIENTED_EDGE ( 'NONE', *, *, #527, .F. ) ;
#344 = VERTEX_POINT ( 'NONE', #593 ) ;
#345 = B_SPLINE_SURFACE_WITH_KNOTS ( 'NONE', 2, 1, ( 
 ( #695, #537 ),
 ( #787, #719 ),
 ( #322, #398 ) ),
 .UNSPECIFIED., .F., .F., .F.,
 ( 3, 3 ),
 ( 2, 2 ),
 ( 0.000000000000000000, 1.000000000000000000 ),
 ( 0.000000000000000000, 1.000000000000000000 ),
 .UNSPECIFIED. ) ;
#346 = CARTESIAN_POINT ( 'NONE',  ( -6.034495713365836499E-05, 26.00731804264020042, -9.765366813010488306E-06 ) ) ;
#347 = LINE ( 'NONE', #501, #572 ) ;
#348 = ORIENTED_EDGE ( 'NONE', *, *, #820, .F. ) ;
#349 = CARTESIAN_POINT ( 'NONE',  ( -43.44876708802902954, 13.65207173738350299, 594.1408752360491690 ) ) ;
#350 = DIRECTION ( 'NONE',  ( 0.000000000000000000, 1.000000000000000000, 0.000000000000000000 ) ) ;
#351 = EDGE_LOOP ( 'NONE', ( #286, #595, #379, #962 ) ) ;
#352 = DATE_TIME_ROLE ( 'classification_date' ) ;
#353 = AXIS2_PLACEMENT_3D ( 'NONE', #443, #910, #676 ) ;
#354 = DIRECTION ( 'NONE',  ( 0.000000000000000000, 1.000000000000000000, 0.000000000000000000 ) ) ;
#355 = CIRCLE ( 'NONE', #925, 30.00000000000000000 ) ;
#356 = EDGE_CURVE ( 'NONE', #20, #628, #61, .T. ) ;
#357 = ORIENTED_EDGE ( 'NONE', *, *, #987, .T. ) ;
#358 = DIRECTION ( 'NONE',  ( 0.000000000000000000, -1.000000000000000000, 0.000000000000000000 ) ) ;
#359 = CARTESIAN_POINT ( 'NONE',  ( -46.27162943010844032, -8.085953714438247175, -34.13548396814440622 ) ) ;
#360 = CC_DESIGN_PERSON_AND_ORGANIZATION_ASSIGNMENT ( #657, #493, ( #78 ) ) ;
#361 = VERTEX_POINT ( 'NONE', #307 ) ;
#362 = LINE ( 'NONE', #580, #115 ) ;
#363 = EDGE_CURVE ( 'NONE', #231, #361, #869, .T. ) ;
#364 = VERTEX_POINT ( 'NONE', #365 ) ;
#365 = CARTESIAN_POINT ( 'NONE',  ( -43.44876708802902954, 13.65207173738350299, 594.1408752360491690 ) ) ;
#366 = DIRECTION ( 'NONE',  ( 0.000000000000000000, 0.000000000000000000, -1.000000000000000000 ) ) ;
#367 = EDGE_LOOP ( 'NONE', ( #814, #193, #922, #583 ) ) ;
#368 = VECTOR ( 'NONE', #430, 1000.000000000000114 ) ;
#369 = AXIS2_PLACEMENT_3D ( 'NONE', #727, #426, #496 ) ;
#370 = EDGE_CURVE ( 'NONE', #668, #30, #520, .T. ) ;
#371 = FACE_OUTER_BOUND ( 'NONE', #367, .T. ) ;
#372 = CARTESIAN_POINT ( 'NONE',  ( -6.034495713365836499E-05, -23.99268195735979603, -57.50000976536681918 ) ) ;
#373 = ORIENTED_EDGE ( 'NONE', *, *, #4, .T. ) ;
#374 = CARTESIAN_POINT ( 'NONE',  ( 4.448674914603346409, 2.594075942694542558, 634.9999902346331737 ) ) ;
#375 = PLANE ( 'NONE',  #939 ) ;
#376 = ORIENTED_EDGE ( 'NONE', *, *, #356, .T. ) ;
#377 = CARTESIAN_POINT ( 'NONE',  ( 53.72985625356236739, 16.02567605929295169, -20.47795063635641455 ) ) ;
#378 = CARTESIAN_POINT ( 'NONE',  ( -63.78922330481243108, -11.10574126108937421, -635.0000097653668263 ) ) ;
#379 = ORIENTED_EDGE ( 'NONE', *, *, #224, .T. ) ;
#380 = LOCAL_TIME ( 15, 22, 50.00000000000000000, #120 ) ;
#381 = CIRCLE ( 'NONE', #140, 4.999999999999997335 ) ;
#382 = FACE_OUTER_BOUND ( 'NONE', #546, .T. ) ;
#383 = CYLINDRICAL_SURFACE ( 'NONE', #73, 25.00000000000000000 ) ;
#384 = ORIENTED_EDGE ( 'NONE', *, *, #785, .T. ) ;
#385 = CARTESIAN_POINT ( 'NONE',  ( -25.22380128697314916, 6.365594526188455227, 57.49999023463325187 ) ) ;
#386 = DIRECTION ( 'NONE',  ( -0.2249510543438584531, -0.9743700647852368002, 0.000000000000000000 ) ) ;
#387 = CARTESIAN_POINT ( 'NONE',  ( -6.034495712661663451E-05, 3.621147404865752595, 57.49999023463318792 ) ) ;
#388 = VERTEX_POINT ( 'NONE', #938 ) ;
#389 = DIRECTION ( 'NONE',  ( 0.000000000000000000, 0.000000000000000000, 1.000000000000000000 ) ) ;
#390 = TOROIDAL_SURFACE ( 'NONE', #259, 52.50000000000000711, 5.000000000000000000 ) ;
#391 = CARTESIAN_POINT ( 'NONE',  ( -6.034495713365836499E-05, 3.621147404865752595, -57.50000976536681918 ) ) ;
#392 = CARTESIAN_POINT ( 'NONE',  ( 46.27150874019416449, -8.085953714438247175, 34.13546443741077496 ) ) ;
#393 = DIRECTION ( 'NONE',  ( 0.000000000000000000, 0.000000000000000000, 1.000000000000000000 ) ) ;
#394 = ORIENTED_EDGE ( 'NONE', *, *, #89, .T. ) ;
#395 = PLANE ( 'NONE',  #65 ) ;
#396 = AXIS2_PLACEMENT_3D ( 'NONE', #861, #560, #393 ) ;
#397 = CC_DESIGN_DATE_AND_TIME_ASSIGNMENT ( #195, #963, ( #883 ) ) ;
#398 = CARTESIAN_POINT ( 'NONE',  ( -44.12362025106067165, 10.72896154302737237, 594.1408752360491690 ) ) ;
#399 = EDGE_CURVE ( 'NONE', #82, #710, #236, .T. ) ;
#400 = CARTESIAN_POINT ( 'NONE',  ( 93.02020455845547531, -17.85427289140519846, 604.9999902346332874 ) ) ;
#401 = VERTEX_POINT ( 'NONE', #539 ) ;
#402 = CIRCLE ( 'NONE', #481, 57.49999999999999289 ) ;
#403 = ORIENTED_EDGE ( 'NONE', *, *, #582, .T. ) ;
#404 = CALENDAR_DATE ( 2024, 2, 11 ) ;
#405 = ADVANCED_FACE ( 'NONE', ( #779 ), #967, .T. ) ;
#406 = ADVANCED_FACE ( 'NONE', ( #793 ), #345, .F. ) ;
#407 = FACE_OUTER_BOUND ( 'NONE', #169, .T. ) ;
#408 = FACE_OUTER_BOUND ( 'NONE', #678, .T. ) ;
#409 = ORIENTED_EDGE ( 'NONE', *, *, #184, .T. ) ;
#410 = EDGE_LOOP ( 'NONE', ( #214, #715 ) ) ;
#411 = PLANE ( 'NONE',  #473 ) ;
#412 = DIRECTION ( 'NONE',  ( 0.000000000000000000, 0.000000000000000000, 1.000000000000000000 ) ) ;
#413 = LINE ( 'NONE', #264, #341 ) ;
#414 = ORIENTED_EDGE ( 'NONE', *, *, #841, .T. ) ;
#415 = VECTOR ( 'NONE', #974, 1000.000000000000114 ) ;
#416 = CARTESIAN_POINT ( 'NONE',  ( -6.034495713365836499E-05, -28.99268195735979958, -35.00000976536681918 ) ) ;
#417 = CARTESIAN_POINT ( 'NONE',  ( 4.069633430859432188, 1.481797921943284191, -0.5257774545813730382 ) ) ;
#418 = CARTESIAN_POINT ( 'NONE',  ( 34.97396422894687618, -7.532154708272383203, 49.23393431828243649 ) ) ;
#419 = ORIENTED_EDGE ( 'NONE', *, *, #152, .T. ) ;
#420 = DIRECTION ( 'NONE',  ( 0.000000000000000000, 0.000000000000000000, -1.000000000000000000 ) ) ;
#421 = CARTESIAN_POINT ( 'NONE',  ( -6.034495713365836499E-05, 26.00731804264020042, 52.49999023463318792 ) ) ;
#422 = EDGE_LOOP ( 'NONE', ( #409, #183, #723, #575 ) ) ;
#423 = PERSON_AND_ORGANIZATION_ROLE ( 'creator' ) ;
#424 = ADVANCED_FACE ( 'NONE', ( #800 ), #635, .T. ) ;
#425 = LINE ( 'NONE', #112, #173 ) ;
#426 = DIRECTION ( 'NONE',  ( 0.000000000000000000, 0.000000000000000000, -1.000000000000000000 ) ) ;
#427 = ORIENTED_EDGE ( 'NONE', *, *, #662, .F. ) ;
#428 = VECTOR ( 'NONE', #34, 1000.000000000000114 ) ;
#429 = AXIS2_PLACEMENT_3D ( 'NONE', #679, #310, #858 ) ;
#430 = DIRECTION ( 'NONE',  ( 0.2249510543438584254, -0.9743700647852366892, 0.000000000000000000 ) ) ;
#431 = CARTESIAN_POINT ( 'NONE',  ( -6.034495713059674746E-05, -28.99268195735979958, -25.00000976536681563 ) ) ;
#432 = ORIENTED_EDGE ( 'NONE', *, *, #433, .F. ) ;
#433 = EDGE_CURVE ( 'NONE', #561, #773, #90, .T. ) ;
#434 = EDGE_CURVE ( 'NONE', #20, #497, #24, .T. ) ;
#435 = DIRECTION ( 'NONE',  ( 0.000000000000000000, -1.000000000000000000, 0.000000000000000000 ) ) ;
#436 = ORIENTED_EDGE ( 'NONE', *, *, #542, .T. ) ;
#437 =( BOUNDED_CURVE ( )  B_SPLINE_CURVE ( 3, ( #230, #176, #392, #468 ),
 .UNSPECIFIED., .F., .F. ) 
 B_SPLINE_CURVE_WITH_KNOTS ( ( 4, 4 ),
 ( 1.875980688332939961, 1.886245076755685091 ),
 .UNSPECIFIED. ) 
 CURVE ( )  GEOMETRIC_REPRESENTATION_ITEM ( )  RATIONAL_B_SPLINE_CURVE ( ( 1.000000000000000000, 0.9999912202134629835, 0.9999912202134629835, 1.000000000000000000 ) ) 
 REPRESENTATION_ITEM ( '' )  );
#438 = DIRECTION ( 'NONE',  ( 0.000000000000000000, 1.000000000000000000, 0.000000000000000000 ) ) ;
#439 = DIRECTION ( 'NONE',  ( 0.000000000000000000, 0.000000000000000000, 1.000000000000000000 ) ) ;
#440 = ORIENTED_EDGE ( 'NONE', *, *, #946, .F. ) ;
#441 = VECTOR ( 'NONE', #614, 1000.000000000000114 ) ;
#442 = ADVANCED_FACE ( 'NONE', ( #474 ), #411, .F. ) ;
#443 = CARTESIAN_POINT ( 'NONE',  ( -6.034495712722897157E-05, 26.00731804264020042, -52.50000976536681918 ) ) ;
#444 = AXIS2_PLACEMENT_3D ( 'NONE', #118, #435, #975 ) ;
#445 = ORIENTED_EDGE ( 'NONE', *, *, #96, .T. ) ;
#446 = AXIS2_PLACEMENT_3D ( 'NONE', #755, #921, #608 ) ;
#447 = AXIS2_PLACEMENT_3D ( 'NONE', #900, #50, #978 ) ;
#448 = CARTESIAN_POINT ( 'NONE',  ( 43.44864639811476792, 13.65207173738350299, -594.1408947667828215 ) ) ;
#449 = DIRECTION ( 'NONE',  ( 0.2249510543438584531, -0.9743700647852368002, 0.000000000000000000 ) ) ;
#450 = VERTEX_POINT ( 'NONE', #242 ) ;
#451 = B_SPLINE_CURVE_WITH_KNOTS ( 'NONE', 3,
 ( #563, #584, #737, #960 ),
 .UNSPECIFIED., .F., .F.,
 ( 4, 4 ),
 ( 7.818293051731879785E-19, 0.0003286311052997659956 ),
 .UNSPECIFIED. ) ;
#452 = DIRECTION ( 'NONE',  ( 0.000000000000000000, 1.000000000000000000, 0.000000000000000000 ) ) ;
#453 = ADVANCED_FACE ( 'NONE', ( #855 ), #157, .F. ) ;
#454 = DIRECTION ( 'NONE',  ( 0.000000000000000000, 1.000000000000000000, 0.000000000000000000 ) ) ;
#455 = VERTEX_POINT ( 'NONE', #248 ) ;
#456 = APPLICATION_PROTOCOL_DEFINITION ( 'international standard', 'config_control_design', 1994, #914 ) ;
#457 = CARTESIAN_POINT ( 'NONE',  ( -35.34760774564342967, -4.539476924255543722, -49.04984189673927375 ) ) ;
#458 = CARTESIAN_POINT ( 'NONE',  ( 93.02020455845547531, -17.85427289140519846, 604.9999902346332874 ) ) ;
#459 = ORIENTED_EDGE ( 'NONE', *, *, #370, .F. ) ;
#460 = AXIS2_PLACEMENT_3D ( 'NONE', #612, #999, #471 ) ;
#461 = CIRCLE ( 'NONE', #986, 52.50000000000000711 ) ;
#462 = CARTESIAN_POINT ( 'NONE',  ( -45.81669078124563299, 11.11983767377961208, 42.93393347974520680 ) ) ;
#463 = DIRECTION ( 'NONE',  ( -0.9743700647852368002, 0.2249510543438584531, 0.000000000000000000 ) ) ;
#464 = CIRCLE ( 'NONE', #774, 35.00000000000000000 ) ;
#465 = DIRECTION ( 'NONE',  ( 1.000000000000000000, 0.000000000000000000, 0.000000000000000000 ) ) ;
#466 = DIRECTION ( 'NONE',  ( 0.000000000000000000, 0.7071067811865405783, 0.7071067811865545671 ) ) ;
#467 = CARTESIAN_POINT ( 'NONE',  ( 44.95054834486128215, 13.99881312307682535, -43.51305385787637903 ) ) ;
#468 = CARTESIAN_POINT ( 'NONE',  ( 46.38775946881116852, -7.088324645797167811, 33.97674954044934026 ) ) ;
#469 = ORIENTED_EDGE ( 'NONE', *, *, #13, .T. ) ;
#470 = VERTEX_POINT ( 'NONE', #174 ) ;
#471 = DIRECTION ( 'NONE',  ( 1.000000000000000000, 0.000000000000000000, 0.000000000000000000 ) ) ;
#472 = ADVANCED_FACE ( 'NONE', ( #775 ), #162, .T. ) ;
#473 = AXIS2_PLACEMENT_3D ( 'NONE', #229, #328, #934 ) ;
#474 = FACE_OUTER_BOUND ( 'NONE', #319, .T. ) ;
#475 = CARTESIAN_POINT ( 'NONE',  ( -6.034495713365836499E-05, 0.5422350814855805279, -57.50000976536681918 ) ) ;
#476 = ORIENTED_EDGE ( 'NONE', *, *, #557, .T. ) ;
#477 = AXIS2_PLACEMENT_3D ( 'NONE', #670, #438, #1002 ) ;
#478 = ORIENTED_EDGE ( 'NONE', *, *, #846, .F. ) ;
#479 = EDGE_CURVE ( 'NONE', #116, #950, #228, .T. ) ;
#480 = CALENDAR_DATE ( 2024, 2, 11 ) ;
#481 = AXIS2_PLACEMENT_3D ( 'NONE', #346, #894, #732 ) ;
#482 = VECTOR ( 'NONE', #452, 1000.000000000000000 ) ;
#483 = EDGE_CURVE ( 'NONE', #293, #570, #864, .T. ) ;
#484 = CARTESIAN_POINT ( 'NONE',  ( -46.38788015872543724, -7.088324645797167811, -33.97676907118296441 ) ) ;
#485 = CARTESIAN_POINT ( 'NONE',  ( -6.034495712661663451E-05, -23.99268195735979603, 57.49999023463318792 ) ) ;
#486 = VERTEX_POINT ( 'NONE', #544 ) ;
#487 = ORIENTED_EDGE ( 'NONE', *, *, #981, .T. ) ;
#488 = CALENDAR_DATE ( 2024, 2, 11 ) ;
#489 = CARTESIAN_POINT ( 'NONE',  ( -41.95206510128998190, -6.064236047319537803, -27.47589919796316948 ) ) ;
#490 = CARTESIAN_POINT ( 'NONE',  ( -6.034495713365836499E-05, 31.00731804264020397, -9.765366813010488306E-06 ) ) ;
#491 = ORIENTED_EDGE ( 'NONE', *, *, #792, .F. ) ;
#492 = VERTEX_POINT ( 'NONE', #550 ) ;
#493 = PERSON_AND_ORGANIZATION_ROLE ( 'classification_officer' ) ;
#494 = CARTESIAN_POINT ( 'NONE',  ( -46.03669199291422842, -10.08615879259181725, -34.45111347062291429 ) ) ;
#495 = CARTESIAN_POINT ( 'NONE',  ( -6.034495713365836499E-05, -28.99268195735979958, -9.765366813010488306E-06 ) ) ;
#496 = DIRECTION ( 'NONE',  ( 0.000000000000000000, -1.000000000000000000, 0.000000000000000000 ) ) ;
#497 = VERTEX_POINT ( 'NONE', #484 ) ;
#498 = AXIS2_PLACEMENT_3D ( 'NONE', #615, #29, #551 ) ;
#499 = AXIS2_PLACEMENT_3D ( 'NONE', #56, #358, #807 ) ;
#500 = LINE ( 'NONE', #35, #368 ) ;
#501 = CARTESIAN_POINT ( 'NONE',  ( 63.11424945186666946, -14.02885145544509626, 634.9999902346331737 ) ) ;
#502 = EDGE_LOOP ( 'NONE', ( #414, #947 ) ) ;
#503 =( BOUNDED_CURVE ( )  B_SPLINE_CURVE ( 3, ( #863, #385, #462, #314 ),
 .UNSPECIFIED., .F., .F. ) 
 B_SPLINE_CURVE_WITH_KNOTS ( ( 4, 4 ),
 ( 1.570796326794895004, 2.802059049270170021 ),
 .UNSPECIFIED. ) 
 CURVE ( )  GEOMETRIC_REPRESENTATION_ITEM ( )  RATIONAL_B_SPLINE_CURVE ( ( 1.000000000000000000, 0.8776060099256249858, 0.8776060099256249858, 1.000000000000000000 ) ) 
 REPRESENTATION_ITEM ( '' )  );
#504 = LINE ( 'NONE', #284, #602 ) ;
#505 = DIRECTION ( 'NONE',  ( 0.000000000000000000, 0.000000000000000000, -1.000000000000000000 ) ) ;
#506 = ORIENTED_EDGE ( 'NONE', *, *, #172, .T. ) ;
#507 = CARTESIAN_POINT ( 'NONE',  ( 43.44864639811471818, 13.65207173738350299, -594.1408947667828215 ) ) ;
#508 = DIRECTION ( 'NONE',  ( -0.2249510543438584531, 0.9743700647852368002, 0.000000000000000000 ) ) ;
#509 = VERTEX_POINT ( 'NONE', #168 ) ;
#510 = EDGE_CURVE ( 'NONE', #853, #492, #783, .T. ) ;
#511 = ADVANCED_FACE ( 'NONE', ( #407 ), #185, .F. ) ;
#512 = AXIS2_PLACEMENT_3D ( 'NONE', #690, #596, #1 ) ;
#513 = CC_DESIGN_APPROVAL ( #716, ( #825 ) ) ;
#514 = DIRECTION ( 'NONE',  ( 0.9743700647852366892, -0.2249510543438584254, 0.000000000000000000 ) ) ;
#515 = CARTESIAN_POINT ( 'NONE',  ( -46.03669199291422842, -10.08615879259181725, -34.45111347062291429 ) ) ;
#516 = VERTEX_POINT ( 'NONE', #643 ) ;
#517 = FACE_OUTER_BOUND ( 'NONE', #632, .T. ) ;
#518 = CARTESIAN_POINT ( 'NONE',  ( -6.034495713365836499E-05, -28.99268195735979958, -9.765366813010488306E-06 ) ) ;
#519 = ORIENTED_EDGE ( 'NONE', *, *, #758, .F. ) ;
#520 = LINE ( 'NONE', #254, #639 ) ;
#521 = CARTESIAN_POINT ( 'NONE',  ( 46.03657130299997391, -10.08615879259181725, 34.45109393988928304 ) ) ;
#522 = ORIENTED_EDGE ( 'NONE', *, *, #218, .T. ) ;
#523 = AXIS2_PLACEMENT_3D ( 'NONE', #332, #948, #878 ) ;
#524 = CARTESIAN_POINT ( 'NONE',  ( 41.95194441137571317, -6.064236047319537803, 27.47587966722954178 ) ) ;
#525 = VERTEX_POINT ( 'NONE', #494 ) ;
#526 = CIRCLE ( 'NONE', #446, 4.999999999999997335 ) ;
#527 = EDGE_CURVE ( 'NONE', #344, #116, #111, .T. ) ;
#528 = CARTESIAN_POINT ( 'NONE',  ( -93.02032524836974403, -17.85427289140519846, -102.3185401938750232 ) ) ;
#529 = DIRECTION ( 'NONE',  ( 0.000000000000000000, 1.000000000000000000, 0.000000000000000000 ) ) ;
#530 = VERTEX_POINT ( 'NONE', #805 ) ;
#531 = CC_DESIGN_PERSON_AND_ORGANIZATION_ASSIGNMENT ( #651, #887, ( #825 ) ) ;
#532 = LINE ( 'NONE', #374, #252 ) ;
#533 = DIRECTION ( 'NONE',  ( 0.9743700647852368002, 0.2249510543438584531, 0.000000000000000000 ) ) ;
#534 = VERTEX_POINT ( 'NONE', #416 ) ;
#535 = DIRECTION ( 'NONE',  ( 1.000000000000000000, 0.000000000000000000, 0.000000000000000000 ) ) ;
#536 = ADVANCED_FACE ( 'NONE', ( #262 ), #390, .T. ) ;
#537 = CARTESIAN_POINT ( 'NONE',  ( -53.92431590398503261, 12.99163042019010206, 17.08760720762868957 ) ) ;
#538 = ORIENTED_EDGE ( 'NONE', *, *, #104, .F. ) ;
#539 = CARTESIAN_POINT ( 'NONE',  ( -6.034495713365836499E-05, 31.00731804264020397, 52.49999023463318792 ) ) ;
#540 = CARTESIAN_POINT ( 'NONE',  ( 54.21727040076597604, 13.05929215840665947, -19.15023291834436492 ) ) ;
#541 = ORIENTED_EDGE ( 'NONE', *, *, #899, .T. ) ;
#542 = EDGE_CURVE ( 'NONE', #30, #60, #464, .T. ) ;
#543 = ORIENTED_EDGE ( 'NONE', *, *, #80, .F. ) ;
#544 = CARTESIAN_POINT ( 'NONE',  ( -93.02032524836974403, -17.85427289140519846, -605.0000097653667126 ) ) ;
#545 = CARTESIAN_POINT ( 'NONE',  ( -6.034495712661663451E-05, 3.621147404865752595, 57.49999023463318792 ) ) ;
#546 = EDGE_LOOP ( 'NONE', ( #188, #982, #839, #936, #75, #919, #906, #357, #432, #487, #331, #3 ) ) ;
#547 = ORIENTED_EDGE ( 'NONE', *, *, #976, .F. ) ;
#548 = APPROVAL_ROLE ( '' ) ;
#549 = EDGE_CURVE ( 'NONE', #773, #586, #912, .T. ) ;
#550 = CARTESIAN_POINT ( 'NONE',  ( -92.34547208533824403, -20.77738308576090276, -605.0000097653667126 ) ) ;
#551 = DIRECTION ( 'NONE',  ( 0.000000000000000000, 0.000000000000000000, -1.000000000000000000 ) ) ;
#552 = ORIENTED_EDGE ( 'NONE', *, *, #820, .T. ) ;
#553 = VECTOR ( 'NONE', #220, 1000.000000000000114 ) ;
#554 = ORIENTED_EDGE ( 'NONE', *, *, #260, .T. ) ;
#555 = AXIS2_PLACEMENT_3D ( 'NONE', #342, #664, #514 ) ;
#556 = CIRCLE ( 'NONE', #642, 30.00000000000000000 ) ;
#557 = EDGE_CURVE ( 'NONE', #210, #875, #829, .T. ) ;
#558 = DIRECTION ( 'NONE',  ( 8.659560562355003116E-17, 0.7071067811865405783, -0.7071067811865545671 ) ) ;
#559 = CARTESIAN_POINT ( 'NONE',  ( 45.81657009133135716, 11.11983767377961208, -42.93395301047883095 ) ) ;
#560 = DIRECTION ( 'NONE',  ( 0.000000000000000000, 1.000000000000000000, 0.000000000000000000 ) ) ;
#561 = VERTEX_POINT ( 'NONE', #143 ) ;
#562 = DIRECTION ( 'NONE',  ( 0.000000000000000000, -1.000000000000000000, 0.000000000000000000 ) ) ;
#563 = CARTESIAN_POINT ( 'NONE',  ( -53.72997694347662900, 16.02567605929295169, 20.47793110562278684 ) ) ;
#564 = CARTESIAN_POINT ( 'NONE',  ( -6.034495713365836499E-05, 31.00731804264020397, 34.99999023463318792 ) ) ;
#565 = ORIENTED_EDGE ( 'NONE', *, *, #762, .F. ) ;
#566 = PERSON_AND_ORGANIZATION ( #918, #129 ) ;
#567 = AXIS2_PLACEMENT_3D ( 'NONE', #630, #870, #102 ) ;
#568 = DIRECTION ( 'NONE',  ( -0.2249510543438584254, -0.9743700647852366892, 0.000000000000000000 ) ) ;
#569 = CARTESIAN_POINT ( 'NONE',  ( -41.27721193825838242, -8.987346241675247427, -27.47589919796316948 ) ) ;
#570 = VERTEX_POINT ( 'NONE', #521 ) ;
#571 = COORDINATED_UNIVERSAL_TIME_OFFSET ( 5, 30, .AHEAD. ) ;
#572 = VECTOR ( 'NONE', #649, 1000.000000000000114 ) ;
#573 = CIRCLE ( 'NONE', #705, 50.00000000000002132 ) ;
#574 = CARTESIAN_POINT ( 'NONE',  ( -94.60347608760223181, 25.46206687166920091, 310.7415167651186607 ) ) ;
#575 = ORIENTED_EDGE ( 'NONE', *, *, #269, .T. ) ;
#576 = EDGE_CURVE ( 'NONE', #796, #106, #66, .T. ) ;
#577 = SHAPE_DEFINITION_REPRESENTATION ( #241, #831 ) ;
#578 =( BOUNDED_CURVE ( )  B_SPLINE_CURVE ( 3, ( #515, #205, #359, #270 ),
 .UNSPECIFIED., .F., .F. ) 
 B_SPLINE_CURVE_WITH_KNOTS ( ( 4, 4 ),
 ( 1.875980688332939961, 1.886245076755685091 ),
 .UNSPECIFIED. ) 
 CURVE ( )  GEOMETRIC_REPRESENTATION_ITEM ( )  RATIONAL_B_SPLINE_CURVE ( ( 1.000000000000000000, 0.9999912202134629835, 0.9999912202134629835, 1.000000000000000000 ) ) 
 REPRESENTATION_ITEM ( '' )  );
#579 = CYLINDRICAL_SURFACE ( 'NONE', #10, 25.00000000000000000 ) ;
#580 = CARTESIAN_POINT ( 'NONE',  ( 93.02020455845547531, -17.85427289140519846, 102.3185206631413990 ) ) ;
#581 = ADVANCED_FACE ( 'NONE', ( #292 ), #289, .F. ) ;
#582 = EDGE_CURVE ( 'NONE', #604, #388, #765, .T. ) ;
#583 = ORIENTED_EDGE ( 'NONE', *, *, #218, .F. ) ;
#584 = CARTESIAN_POINT ( 'NONE',  ( -53.89495147586933399, 15.03300367653282166, 20.04507177068853707 ) ) ;
#585 = DIRECTION ( 'NONE',  ( 0.000000000000000000, 1.000000000000000000, 0.000000000000000000 ) ) ;
#586 = VERTEX_POINT ( 'NONE', #372 ) ;
#587 = CIRCLE ( 'NONE', #37, 25.00000000000000000 ) ;
#588 =( BOUNDED_CURVE ( )  B_SPLINE_CURVE ( 3, ( #545, #788, #7, #941 ),
 .UNSPECIFIED., .F., .F. ) 
 B_SPLINE_CURVE_WITH_KNOTS ( ( 4, 4 ),
 ( 1.570796326794895004, 2.777460908913290005 ),
 .UNSPECIFIED. ) 
 CURVE ( )  GEOMETRIC_REPRESENTATION_ITEM ( )  RATIONAL_B_SPLINE_CURVE ( ( 1.000000000000000000, 0.8822996553329799374, 0.8822996553329799374, 1.000000000000000000 ) ) 
 REPRESENTATION_ITEM ( '' )  );
#589 = FACE_OUTER_BOUND ( 'NONE', #422, .T. ) ;
#590 = CARTESIAN_POINT ( 'NONE',  ( 3.773821751571736272, -0.3290342516611596824, 584.9999902346331737 ) ) ;
#591 = EDGE_LOOP ( 'NONE', ( #297, #522 ) ) ;
#592 = AXIS2_PLACEMENT_3D ( 'NONE', #378, #70, #674 ) ;
#593 = CARTESIAN_POINT ( 'NONE',  ( -6.034495713365836499E-05, 26.00731804264020042, -57.50000976536681918 ) ) ;
#594 = DIRECTION ( 'NONE',  ( -0.9743700647852366892, 0.2249510543438584254, 0.000000000000000000 ) ) ;
#595 = ORIENTED_EDGE ( 'NONE', *, *, #363, .T. ) ;
#596 = DIRECTION ( 'NONE',  ( 0.000000000000000000, -1.000000000000000000, 0.000000000000000000 ) ) ;
#597 = CARTESIAN_POINT ( 'NONE',  ( -6.034495713365836499E-05, 31.00731804264020397, -9.765366813010488306E-06 ) ) ;
#598 = ORIENTED_EDGE ( 'NONE', *, *, #433, .T. ) ;
#599 = ADVANCED_FACE ( 'NONE', ( #671 ), #926, .F. ) ;
#600 = VECTOR ( 'NONE', #211, 1000.000000000000114 ) ;
#601 = CYLINDRICAL_SURFACE ( 'NONE', #512, 57.49999999999999289 ) ;
#602 = VECTOR ( 'NONE', #568, 1000.000000000000114 ) ;
#603 = CARTESIAN_POINT ( 'NONE',  ( -6.034495713365836499E-05, 21.00731804264020042, -9.765366813010488306E-06 ) ) ;
#604 = VERTEX_POINT ( 'NONE', #458 ) ;
#605 = CARTESIAN_POINT ( 'NONE',  ( -6.034495713365836499E-05, 21.00731804264020042, -9.765366813010488306E-06 ) ) ;
#606 = DIRECTION ( 'NONE',  ( 0.000000000000000000, 0.000000000000000000, 1.000000000000000000 ) ) ;
#607 = B_SPLINE_SURFACE_WITH_KNOTS ( 'NONE', 2, 1, ( 
 ( #968, #190 ),
 ( #827, #821 ),
 ( #507, #273 ) ),
 .UNSPECIFIED., .F., .F., .F.,
 ( 3, 3 ),
 ( 2, 2 ),
 ( 0.000000000000000000, 1.000000000000000000 ),
 ( 0.000000000000000000, 1.000000000000000000 ),
 .UNSPECIFIED. ) ;
#608 = DIRECTION ( 'NONE',  ( 1.224650823052108849E-16, 0.000000000000000000, -1.000000000000000000 ) ) ;
#609 = ORIENTED_EDGE ( 'NONE', *, *, #951, .T. ) ;
#610 = ADVANCED_FACE ( 'NONE', ( #135 ), #911, .F. ) ;
#611 = ADVANCED_FACE ( 'NONE', ( #1003 ), #375, .F. ) ;
#612 = CARTESIAN_POINT ( 'NONE',  ( -6.034495713365836499E-05, -28.99268195735979958, -9.765366813010488306E-06 ) ) ;
#613 = EDGE_CURVE ( 'NONE', #450, #586, #526, .T. ) ;
#614 = DIRECTION ( 'NONE',  ( 0.5589199576723008489, 0.1290368396117766159, 0.8191202444931989790 ) ) ;
#615 = CARTESIAN_POINT ( 'NONE',  ( -6.034495713365836499E-05, -28.99268195735979958, -9.765366813010488306E-06 ) ) ;
#616 = ORIENTED_EDGE ( 'NONE', *, *, #981, .F. ) ;
#617 = DIRECTION ( 'NONE',  ( -0.9743700647852366892, 0.2249510543438584254, 0.000000000000000000 ) ) ;
#618 = CC_DESIGN_PERSON_AND_ORGANIZATION_ASSIGNMENT ( #278, #43, ( #825 ) ) ;
#619 = CARTESIAN_POINT ( 'NONE',  ( 24.65135397109909476, 9.312374836700291425, -57.50000976536676234 ) ) ;
#620 = ADVANCED_FACE ( 'NONE', ( #216 ), #932, .T. ) ;
#621 = CARTESIAN_POINT ( 'NONE',  ( -6.034495713365836499E-05, -28.99268195735979958, -9.765366813010488306E-06 ) ) ;
#622 = CARTESIAN_POINT ( 'NONE',  ( -4.448795604517578717, 2.594075942694547443, -585.0000097653668263 ) ) ;
#623 = VECTOR ( 'NONE', #884, 1000.000000000000000 ) ;
#624 = ORIENTED_EDGE ( 'NONE', *, *, #899, .F. ) ;
#625 = CARTESIAN_POINT ( 'NONE',  ( 93.02020455845547531, -17.85427289140519846, 102.3185206631413990 ) ) ;
#626 = DIRECTION ( 'NONE',  ( -0.2249510543438584254, -0.9743700647852366892, 0.000000000000000000 ) ) ;
#627 = ORIENTED_EDGE ( 'NONE', *, *, #479, .F. ) ;
#628 = VERTEX_POINT ( 'NONE', #296 ) ;
#629 = DIRECTION ( 'NONE',  ( -0.2249510543438584531, -0.9743700647852368002, 0.000000000000000000 ) ) ;
#630 = CARTESIAN_POINT ( 'NONE',  ( -63.11437014178113003, -14.02885145544514955, -605.0000097653667126 ) ) ;
#631 = LINE ( 'NONE', #701, #636 ) ;
#632 = EDGE_LOOP ( 'NONE', ( #866, #282, #845, #124 ) ) ;
#633 = EDGE_LOOP ( 'NONE', ( #478, #749, #790, #19 ) ) ;
#634 = EDGE_CURVE ( 'NONE', #486, #492, #772, .T. ) ;
#635 = CYLINDRICAL_SURFACE ( 'NONE', #9, 50.00000000000002132 ) ;
#636 = VECTOR ( 'NONE', #2, 1000.000000000000000 ) ;
#637 = CARTESIAN_POINT ( 'NONE',  ( -18.46390731485865189, -3.720479869674667039, -57.50000976536681918 ) ) ;
#638 = ORIENTED_EDGE ( 'NONE', *, *, #907, .T. ) ;
#639 = VECTOR ( 'NONE', #558, 1000.000000000000114 ) ;
#640 = ORIENTED_EDGE ( 'NONE', *, *, #192, .T. ) ;
#641 = CC_DESIGN_APPROVAL ( #11, ( #78 ) ) ;
#642 = AXIS2_PLACEMENT_3D ( 'NONE', #817, #46, #187 ) ;
#643 = CARTESIAN_POINT ( 'NONE',  ( -53.72997694347662900, 16.02567605929295169, 20.47793110562278684 ) ) ;
#644 = LINE ( 'NONE', #263, #623 ) ;
#645 = CARTESIAN_POINT ( 'NONE',  ( 44.12349956114631766, 10.72896154302780225, -594.1408947667828215 ) ) ;
#646 = VERTEX_POINT ( 'NONE', #81 ) ;
#647 = DATE_AND_TIME ( #261, #985 ) ;
#648 = DIRECTION ( 'NONE',  ( 0.000000000000000000, 0.000000000000000000, 1.000000000000000000 ) ) ;
#649 = DIRECTION ( 'NONE',  ( 0.9743700647852366892, -0.2249510543438584254, 0.000000000000000000 ) ) ;
#650 = ORIENTED_EDGE ( 'NONE', *, *, #4, .F. ) ;
#651 = PERSON_AND_ORGANIZATION ( #918, #129 ) ;
#652 = CC_DESIGN_DATE_AND_TIME_ASSIGNMENT ( #272, #352, ( #78 ) ) ;
#653 = DIRECTION ( 'NONE',  ( 0.000000000000000000, 0.000000000000000000, -1.000000000000000000 ) ) ;
#654 = ADVANCED_FACE ( 'NONE', ( #302 ), #383, .F. ) ;
#655 = DIRECTION ( 'NONE',  ( -0.2249510543438584254, -0.9743700647852366892, 0.000000000000000000 ) ) ;
#656 = VERTEX_POINT ( 'NONE', #213 ) ;
#657 = PERSON_AND_ORGANIZATION ( #918, #129 ) ;
#658 = AXIS2_PLACEMENT_3D ( 'NONE', #885, #697, #317 ) ;
#659 = ADVANCED_FACE ( 'NONE', ( #751 ), #767, .T. ) ;
#660 = CARTESIAN_POINT ( 'NONE',  ( -63.78922330481243108, -11.10574126108937421, -635.0000097653668263 ) ) ;
#661 = DIRECTION ( 'NONE',  ( 0.000000000000000000, 1.000000000000000000, 0.000000000000000000 ) ) ;
#662 = EDGE_CURVE ( 'NONE', #570, #303, #437, .T. ) ;
#663 = EDGE_LOOP ( 'NONE', ( #519, #997, #881, #913, #711, #8, #650, #198 ) ) ;
#664 = DIRECTION ( 'NONE',  ( -0.2249510543438584531, -0.9743700647852368002, 0.000000000000000000 ) ) ;
#665 = CARTESIAN_POINT ( 'NONE',  ( -6.034495713365836499E-05, 31.00731804264020397, -9.765366813010488306E-06 ) ) ;
#666 = ORIENTED_EDGE ( 'NONE', *, *, #150, .F. ) ;
#667 = DIRECTION ( 'NONE',  ( 0.000000000000000000, 1.000000000000000000, 0.000000000000000000 ) ) ;
#668 = VERTEX_POINT ( 'NONE', #316 ) ;
#669 = APPROVAL_PERSON_ORGANIZATION ( #566, #11, #48 ) ;
#670 = CARTESIAN_POINT ( 'NONE',  ( -6.034495713365836499E-05, -23.99268195735979603, -9.765366813010488306E-06 ) ) ;
#671 = FACE_OUTER_BOUND ( 'NONE', #227, .T. ) ;
#672 = ORIENTED_EDGE ( 'NONE', *, *, #542, .F. ) ;
#673 = LINE ( 'NONE', #524, #600 ) ;
#674 = DIRECTION ( 'NONE',  ( 1.000000000000000000, 0.000000000000000000, 0.000000000000000000 ) ) ;
#675 = ORIENTED_EDGE ( 'NONE', *, *, #683, .F. ) ;
#676 = DIRECTION ( 'NONE',  ( 1.224650823052108849E-16, 0.000000000000000000, -1.000000000000000000 ) ) ;
#677 = DIRECTION ( 'NONE',  ( -0.7981262456937372463, 0.1842619626331442051, 0.5736218484867902090 ) ) ;
#678 = EDGE_LOOP ( 'NONE', ( #966, #469, #804, #309 ) ) ;
#679 = CARTESIAN_POINT ( 'NONE',  ( -6.034495713365836499E-05, -23.99268195735979603, -9.765366813010488306E-06 ) ) ;
#680 = CIRCLE ( 'NONE', #923, 50.00000000000002132 ) ;
#681 = DIRECTION ( 'NONE',  ( 0.000000000000000000, 0.000000000000000000, 1.000000000000000000 ) ) ;
#682 = EDGE_CURVE ( 'NONE', #303, #245, #806, .T. ) ;
#683 = EDGE_CURVE ( 'NONE', #977, #586, #631, .T. ) ;
#684 = LOCAL_TIME ( 15, 22, 50.00000000000000000, #171 ) ;
#685 = CARTESIAN_POINT ( 'NONE',  ( 93.02020455845547531, -17.85427289140519846, 102.3185206631413990 ) ) ;
#686 = ORIENTED_EDGE ( 'NONE', *, *, #23, .F. ) ;
#687 = APPLICATION_CONTEXT ( 'configuration controlled 3d designs of mechanical parts and assemblies' ) ;
#688 = PLANE ( 'NONE',  #460 ) ;
#689 = CIRCLE ( 'NONE', #22, 25.00000000000000000 ) ;
#690 = CARTESIAN_POINT ( 'NONE',  ( -6.034495713365836499E-05, 31.00731804264020397, -9.765366813010488306E-06 ) ) ;
#691 = CARTESIAN_POINT ( 'NONE',  ( -6.034495713365836499E-05, 26.00731804264020042, -9.765366813010488306E-06 ) ) ;
#692 = ORIENTED_EDGE ( 'NONE', *, *, #549, .F. ) ;
#693 =( BOUNDED_CURVE ( )  B_SPLINE_CURVE ( 3, ( #475, #696, #559, #879 ),
 .UNSPECIFIED., .F., .F. ) 
 B_SPLINE_CURVE_WITH_KNOTS ( ( 4, 4 ),
 ( 1.570796326794895004, 2.802059049270170021 ),
 .UNSPECIFIED. ) 
 CURVE ( )  GEOMETRIC_REPRESENTATION_ITEM ( )  RATIONAL_B_SPLINE_CURVE ( ( 1.000000000000000000, 0.8776060099256249858, 0.8776060099256249858, 1.000000000000000000 ) ) 
 REPRESENTATION_ITEM ( '' )  );
#694 = PERSON_AND_ORGANIZATION ( #918, #129 ) ;
#695 = CARTESIAN_POINT ( 'NONE',  ( -53.24946274095333365, 15.91474061454624334, 17.08760720762868957 ) ) ;
#696 = CARTESIAN_POINT ( 'NONE',  ( 25.22368059705888399, 6.365594526188455227, -57.50000976536687602 ) ) ;
#697 = DIRECTION ( 'NONE',  ( 0.000000000000000000, -1.000000000000000000, 0.000000000000000000 ) ) ;
#698 = VECTOR ( 'NONE', #707, 1000.000000000000000 ) ;
#699 = APPROVAL_STATUS ( 'not_yet_approved' ) ;
#700 = DIRECTION ( 'NONE',  ( 0.9743700647852368002, -0.2249510543438585641, 0.000000000000000000 ) ) ;
#701 = CARTESIAN_POINT ( 'NONE',  ( -6.034495713365836499E-05, 31.00731804264020397, -57.50000976536681918 ) ) ;
#702 = ORIENTED_EDGE ( 'NONE', *, *, #930, .T. ) ;
#703 = AXIS2_PLACEMENT_3D ( 'NONE', #739, #197, #505 ) ;
#704 = EDGE_LOOP ( 'NONE', ( #100, #857, #128, #728 ) ) ;
#705 = AXIS2_PLACEMENT_3D ( 'NONE', #622, #942, #822 ) ;
#706 =( NAMED_UNIT ( * ) PLANE_ANGLE_UNIT ( ) SI_UNIT ( $, .RADIAN. ) );
#707 = DIRECTION ( 'NONE',  ( 0.000000000000000000, -1.000000000000000000, 0.000000000000000000 ) ) ;
#708 = FACE_OUTER_BOUND ( 'NONE', #717, .T. ) ;
#709 = EDGE_CURVE ( 'NONE', #977, #646, #693, .T. ) ;
#710 = VERTEX_POINT ( 'NONE', #181 ) ;
#711 = ORIENTED_EDGE ( 'NONE', *, *, #745, .F. ) ;
#712 = APPROVAL_DATE_TIME ( #77, #730 ) ;
#713 = CARTESIAN_POINT ( 'NONE',  ( 53.72985625356236739, 16.02567605929295169, -20.47795063635641455 ) ) ;
#714 = CARTESIAN_POINT ( 'NONE',  ( 46.38775946881116852, -7.088324645797167811, 33.97674954044934026 ) ) ;
#715 = ORIENTED_EDGE ( 'NONE', *, *, #149, .T. ) ;
#716 = APPROVAL ( #339, 'UNSPECIFIED' ) ;
#717 = EDGE_LOOP ( 'NONE', ( #251, #144, #440, #119 ) ) ;
#718 =( BOUNDED_CURVE ( )  B_SPLINE_CURVE ( 3, ( #138, #457, #843, #79 ),
 .UNSPECIFIED., .F., .F. ) 
 B_SPLINE_CURVE_WITH_KNOTS ( ( 4, 4 ),
 ( 0.6321741806128819974, 1.570796326794895004 ),
 .UNSPECIFIED. ) 
 CURVE ( )  GEOMETRIC_REPRESENTATION_ITEM ( )  RATIONAL_B_SPLINE_CURVE ( ( 1.000000000000000000, 0.9279200547607799887, 0.9279200547607799887, 1.000000000000000000 ) ) 
 REPRESENTATION_ITEM ( '' )  );
#719 = CARTESIAN_POINT ( 'NONE',  ( -95.57705610884413261, 22.60792320670865152, 309.0865567109906920 ) ) ;
#720 = ADVANCED_FACE ( 'NONE', ( #98, #856 ), #860, .T. ) ;
#721 = DIRECTION ( 'NONE',  ( -0.2249510543438584254, -0.9743700647852366892, 0.000000000000000000 ) ) ;
#722 = DIRECTION ( 'NONE',  ( 0.000000000000000000, 0.000000000000000000, -1.000000000000000000 ) ) ;
#723 = ORIENTED_EDGE ( 'NONE', *, *, #576, .F. ) ;
#724 = LOCAL_TIME ( 15, 22, 50.00000000000000000, #189 ) ;
#725 = CARTESIAN_POINT ( 'NONE',  ( -41.95206510128998190, -6.064236047319537803, -27.47589919796316948 ) ) ;
#726 = LINE ( 'NONE', #40, #234 ) ;
#727 = CARTESIAN_POINT ( 'NONE',  ( 63.78910261489816236, -11.10574126108937421, 634.9999902346331737 ) ) ;
#728 = ORIENTED_EDGE ( 'NONE', *, *, #54, .F. ) ;
#729 = COORDINATED_UNIVERSAL_TIME_OFFSET ( 5, 30, .AHEAD. ) ;
#730 = APPROVAL ( #699, 'UNSPECIFIED' ) ;
#731 = EDGE_CURVE ( 'NONE', #534, #470, #904, .T. ) ;
#732 = DIRECTION ( 'NONE',  ( 0.000000000000000000, 0.000000000000000000, 1.000000000000000000 ) ) ;
#733 = DIRECTION ( 'NONE',  ( -1.000000000000000000, 0.000000000000000000, 0.000000000000000000 ) ) ;
#734 = ORIENTED_EDGE ( 'NONE', *, *, #930, .F. ) ;
#735 = APPROVAL_STATUS ( 'not_yet_approved' ) ;
#736 = AXIS2_PLACEMENT_3D ( 'NONE', #725, #882, #340 ) ;
#737 = CARTESIAN_POINT ( 'NONE',  ( -54.05753082832392664, 14.04396945552996101, 19.60280324247103323 ) ) ;
#738 = AXIS2_PLACEMENT_3D ( 'NONE', #621, #329, #163 ) ;
#739 = CARTESIAN_POINT ( 'NONE',  ( -6.034495713365836499E-05, 31.00731804264020397, -9.765366813010488306E-06 ) ) ;
#740 = VERTEX_POINT ( 'NONE', #794 ) ;
#741 =( GEOMETRIC_REPRESENTATION_CONTEXT ( 3 ) GLOBAL_UNCERTAINTY_ASSIGNED_CONTEXT ( ( #837 ) ) GLOBAL_UNIT_ASSIGNED_CONTEXT ( ( #94, #706, #850 ) ) REPRESENTATION_CONTEXT ( 'NONE', 'WORKASPACE' ) );
#742 = CIRCLE ( 'NONE', #444, 57.49999999999999289 ) ;
#743 = DIRECTION ( 'NONE',  ( 0.9743700647852368002, 0.2249510543438584531, 0.000000000000000000 ) ) ;
#744 = FACE_OUTER_BOUND ( 'NONE', #890, .T. ) ;
#745 = EDGE_CURVE ( 'NONE', #326, #853, #103, .T. ) ;
#746 = VECTOR ( 'NONE', #366, 1000.000000000000000 ) ;
#747 = ORIENTED_EDGE ( 'NONE', *, *, #846, .T. ) ;
#748 = CARTESIAN_POINT ( 'NONE',  ( -6.034495713365836499E-05, 21.00731804264020042, -9.765366813010488306E-06 ) ) ;
#749 = ORIENTED_EDGE ( 'NONE', *, *, #893, .T. ) ;
#750 = CARTESIAN_POINT ( 'NONE',  ( -6.034495713365836499E-05, 21.00731804264020042, 24.99999023463318792 ) ) ;
#751 = FACE_OUTER_BOUND ( 'NONE', #256, .T. ) ;
#752 = EDGE_LOOP ( 'NONE', ( #105, #92, #202, #139 ) ) ;
#753 = AXIS2_PLACEMENT_3D ( 'NONE', #964, #743, #653 ) ;
#754 = LINE ( 'NONE', #142, #482 ) ;
#755 = CARTESIAN_POINT ( 'NONE',  ( -6.034495712722897157E-05, -23.99268195735979603, -52.50000976536681918 ) ) ;
#756 = EDGE_LOOP ( 'NONE', ( #177, #154, #686, #897 ) ) ;
#757 = EDGE_CURVE ( 'NONE', #604, #740, #255, .T. ) ;
#758 = EDGE_CURVE ( 'NONE', #525, #977, #287, .T. ) ;
#759 = CARTESIAN_POINT ( 'NONE',  ( -3.773942441486003219, -0.3290342516611596824, -585.0000097653668263 ) ) ;
#760 = DIRECTION ( 'NONE',  ( 0.2249510543438584254, -0.9743700647852366892, 0.000000000000000000 ) ) ;
#761 = VERTEX_POINT ( 'NONE', #865 ) ;
#762 = EDGE_CURVE ( 'NONE', #338, #668, #689, .T. ) ;
#763 = ADVANCED_FACE ( 'NONE', ( #408 ), #937, .F. ) ;
#764 = DIRECTION ( 'NONE',  ( 0.000000000000000000, 0.000000000000000000, -1.000000000000000000 ) ) ;
#765 = LINE ( 'NONE', #685, #746 ) ;
#766 = ORIENTED_EDGE ( 'NONE', *, *, #946, .T. ) ;
#767 = TOROIDAL_SURFACE ( 'NONE', #337, 52.50000000000000711, 5.000000000000000000 ) ;
#768 = MECHANICAL_CONTEXT ( 'NONE', #914, 'mechanical' ) ;
#769 = DIRECTION ( 'NONE',  ( 0.9743700647852368002, -0.2249510543438583421, 0.000000000000000000 ) ) ;
#770 = APPROVAL_PERSON_ORGANIZATION ( #891, #716, #32 ) ;
#771 = CLOSED_SHELL ( 'NONE', ( #258, #599, #659, #333, #654, #803, #442, #511, #798, #620, #581, #424, #799, #998, #610, #611, #453, #472, #141, #877, #406, #970, #720, #283, #194, #810, #405, #536, #121, #763 ) ) ;
#772 = LINE ( 'NONE', #996, #64 ) ;
#773 = VERTEX_POINT ( 'NONE', #485 ) ;
#774 = AXIS2_PLACEMENT_3D ( 'NONE', #597, #838, #147 ) ;
#775 = FACE_OUTER_BOUND ( 'NONE', #886, .T. ) ;
#776 = CARTESIAN_POINT ( 'NONE',  ( -6.034495713365836499E-05, 0.5422350814855805279, -57.50000976536681918 ) ) ;
#777 = ORIENTED_EDGE ( 'NONE', *, *, #223, .F. ) ;
#778 = CARTESIAN_POINT ( 'NONE',  ( -95.39532149533071959, 22.56596646522234906, 310.0933745365416598 ) ) ;
#779 = FACE_OUTER_BOUND ( 'NONE', #67, .T. ) ;
#780 = DIRECTION ( 'NONE',  ( 0.000000000000000000, 0.000000000000000000, 1.000000000000000000 ) ) ;
#781 = CARTESIAN_POINT ( 'NONE',  ( -6.034495712937210045E-05, -28.99268195735979958, 34.99999023463318792 ) ) ;
#782 = EDGE_LOOP ( 'NONE', ( #265, #63, #384, #747, #849, #250, #38, #403 ) ) ;
#783 = CIRCLE ( 'NONE', #567, 30.00000000000001421 ) ;
#784 = CARTESIAN_POINT ( 'NONE',  ( -6.034495713365836499E-05, 0.5422350814855805279, -57.50000976536681918 ) ) ;
#785 = EDGE_CURVE ( 'NONE', #245, #516, #588, .T. ) ;
#786 = VECTOR ( 'NONE', #847, 1000.000000000000114 ) ;
#787 = CARTESIAN_POINT ( 'NONE',  ( -94.90220294581243365, 25.53103340106480346, 309.0865567109906920 ) ) ;
#788 = CARTESIAN_POINT ( 'NONE',  ( -24.65147466101335993, 9.312374836700291425, 57.49999023463313108 ) ) ;
#789 = CARTESIAN_POINT ( 'NONE',  ( 54.21727040076597604, 13.05929215840665947, -19.15023291834436492 ) ) ;
#790 = ORIENTED_EDGE ( 'NONE', *, *, #976, .T. ) ;
#791 = FACE_BOUND ( 'NONE', #591, .T. ) ;
#792 = EDGE_CURVE ( 'NONE', #950, #646, #323, .T. ) ;
#793 = FACE_OUTER_BOUND ( 'NONE', #633, .T. ) ;
#794 = CARTESIAN_POINT ( 'NONE',  ( 92.34535139542396109, -20.77738308576090276, 604.9999902346332874 ) ) ;
#795 = ORIENTED_EDGE ( 'NONE', *, *, #54, .T. ) ;
#796 = VERTEX_POINT ( 'NONE', #86 ) ;
#797 = DATE_AND_TIME ( #488, #321 ) ;
#798 = ADVANCED_FACE ( 'NONE', ( #708 ), #25, .F. ) ;
#799 = ADVANCED_FACE ( 'NONE', ( #200 ), #607, .F. ) ;
#800 = FACE_OUTER_BOUND ( 'NONE', #984, .T. ) ;
#801 = CARTESIAN_POINT ( 'NONE',  ( 35.34748705572916094, -4.539476924255543722, 49.04982236600564960 ) ) ;
#802 = CARTESIAN_POINT ( 'NONE',  ( 43.44864639811476792, 13.65207173738350299, -594.1408947667828215 ) ) ;
#803 = ADVANCED_FACE ( 'NONE', ( #117 ), #196, .T. ) ;
#804 = ORIENTED_EDGE ( 'NONE', *, *, #731, .F. ) ;
#805 = CARTESIAN_POINT ( 'NONE',  ( -54.21739109068023765, 13.05929215840665947, 19.15021338761073721 ) ) ;
#806 =( BOUNDED_CURVE ( )  B_SPLINE_CURVE ( 3, ( #714, #801, #955, #387 ),
 .UNSPECIFIED., .F., .T. ) 
 B_SPLINE_CURVE_WITH_KNOTS ( ( 4, 4 ),
 ( 0.6321741806128819974, 1.570796326794895004 ),
 .UNSPECIFIED. ) 
 CURVE ( )  GEOMETRIC_REPRESENTATION_ITEM ( )  RATIONAL_B_SPLINE_CURVE ( ( 1.000000000000000000, 0.9279200547607799887, 0.9279200547607799887, 1.000000000000000000 ) ) 
 REPRESENTATION_ITEM ( '' )  );
#807 = DIRECTION ( 'NONE',  ( 0.000000000000000000, 0.000000000000000000, 1.000000000000000000 ) ) ;
#808 = DIRECTION ( 'NONE',  ( 0.000000000000000000, 0.000000000000000000, 1.000000000000000000 ) ) ;
#809 = EDGE_LOOP ( 'NONE', ( #244, #971, #373, #624 ) ) ;
#810 = ADVANCED_FACE ( 'NONE', ( #126 ), #579, .F. ) ;
#811 = AXIS2_PLACEMENT_3D ( 'NONE', #748, #667, #288 ) ;
#812 = CARTESIAN_POINT ( 'NONE',  ( -63.11437014178093818, -14.02885145544509626, -635.0000097653668263 ) ) ;
#813 = CARTESIAN_POINT ( 'NONE',  ( -6.034495713365836499E-05, -28.99268195735979958, -9.765366813010488306E-06 ) ) ;
#814 = ORIENTED_EDGE ( 'NONE', *, *, #13, .F. ) ;
#815 = EDGE_CURVE ( 'NONE', #238, #344, #402, .T. ) ;
#816 = CARTESIAN_POINT ( 'NONE',  ( -53.72997694347662900, 16.02567605929295169, 20.47793110562278684 ) ) ;
#817 = CARTESIAN_POINT ( 'NONE',  ( 63.78910261489836842, -11.10574126108942039, 604.9999902346332874 ) ) ;
#818 = ORIENTED_EDGE ( 'NONE', *, *, #125, .F. ) ;
#819 = PERSON_AND_ORGANIZATION ( #918, #129 ) ;
#820 = EDGE_CURVE ( 'NONE', #82, #326, #500, .T. ) ;
#821 = CARTESIAN_POINT ( 'NONE',  ( 95.57693541892986389, 22.60792320670865152, -309.0865762417242877 ) ) ;
#822 = DIRECTION ( 'NONE',  ( 0.9743700647852366892, 0.2249510543438584254, 0.000000000000000000 ) ) ;
#823 = ORIENTED_EDGE ( 'NONE', *, *, #757, .F. ) ;
#824 = CIRCLE ( 'NONE', #353, 4.999999999999997335 ) ;
#825 = PRODUCT_DEFINITION_FORMATION_WITH_SPECIFIED_SOURCE ( 'ANY', '', #93, .NOT_KNOWN. ) ;
#826 = CIRCLE ( 'NONE', #175, 4.999999999999997335 ) ;
#827 = CARTESIAN_POINT ( 'NONE',  ( 94.90208225589816493, 25.53103340106480346, -309.0865762417242877 ) ) ;
#828 = FACE_OUTER_BOUND ( 'NONE', #704, .T. ) ;
#829 = CIRCLE ( 'NONE', #160, 50.00000000000002132 ) ;
#830 = ORIENTED_EDGE ( 'NONE', *, *, #96, .F. ) ;
#831 = ADVANCED_BREP_SHAPE_REPRESENTATION ( 'fan_Default_sldprt', ( #908, #304 ), #741 ) ;
#832 = CARTESIAN_POINT ( 'NONE',  ( 94.60335539768796309, 25.46206687166920091, -310.7415362958523133 ) ) ;
#833 = DIRECTION ( 'NONE',  ( -0.9743700647852366892, 0.2249510543438584254, 0.000000000000000000 ) ) ;
#834 = ORIENTED_EDGE ( 'NONE', *, *, #510, .T. ) ;
#835 = LINE ( 'NONE', #225, #553 ) ;
#836 = VECTOR ( 'NONE', #12, 1000.000000000000114 ) ;
#837 = UNCERTAINTY_MEASURE_WITH_UNIT (LENGTH_MEASURE( 1.000000000000000082E-05 ), #94, 'distance_accuracy_value', 'NONE');
#838 = DIRECTION ( 'NONE',  ( 0.000000000000000000, -1.000000000000000000, 0.000000000000000000 ) ) ;
#839 = ORIENTED_EDGE ( 'NONE', *, *, #527, .T. ) ;
#840 = CC_DESIGN_PERSON_AND_ORGANIZATION_ASSIGNMENT ( #819, #423, ( #883 ) ) ;
#841 = EDGE_CURVE ( 'NONE', #455, #450, #1000, .T. ) ;
#842 = CONICAL_SURFACE ( 'NONE', #811, 25.00000000000000000, 0.7853981633974574939 ) ;
#843 = CARTESIAN_POINT ( 'NONE',  ( -18.68388060098575920, -0.6923523809586010769, -57.50000976536676234 ) ) ;
#844 = CARTESIAN_POINT ( 'NONE',  ( -3.394900957742123637, 4.404908116298996923, 0.5257579238477469996 ) ) ;
#845 = ORIENTED_EDGE ( 'NONE', *, *, #246, .T. ) ;
#846 = EDGE_CURVE ( 'NONE', #516, #364, #867, .T. ) ;
#847 = DIRECTION ( 'NONE',  ( 0.2249510543438584254, -0.9743700647852366892, 0.000000000000000000 ) ) ;
#848 = CARTESIAN_POINT ( 'NONE',  ( 63.78910261489816236, -11.10574126108937421, 634.9999902346331737 ) ) ;
#849 = ORIENTED_EDGE ( 'NONE', *, *, #980, .T. ) ;
#850 =( NAMED_UNIT ( * ) SI_UNIT ( $, .STERADIAN. ) SOLID_ANGLE_UNIT ( ) );
#851 = CARTESIAN_POINT ( 'NONE',  ( -6.034495712661663451E-05, 26.00731804264020042, 57.49999023463318792 ) ) ;
#852 = DIRECTION ( 'NONE',  ( 0.000000000000000000, 0.000000000000000000, 1.000000000000000000 ) ) ;
#853 = VERTEX_POINT ( 'NONE', #812 ) ;
#854 = PERSON_AND_ORGANIZATION ( #918, #129 ) ;
#855 = FACE_OUTER_BOUND ( 'NONE', #36, .T. ) ;
#856 = FACE_OUTER_BOUND ( 'NONE', #410, .T. ) ;
#857 = ORIENTED_EDGE ( 'NONE', *, *, #370, .T. ) ;
#858 = DIRECTION ( 'NONE',  ( 0.000000000000000000, 0.000000000000000000, 1.000000000000000000 ) ) ;
#859 = DIRECTION ( 'NONE',  ( 0.2249510543438584531, -0.9743700647852368002, 0.000000000000000000 ) ) ;
#860 = PLANE ( 'NONE',  #203 ) ;
#861 = CARTESIAN_POINT ( 'NONE',  ( -6.034495713365836499E-05, 31.00731804264020397, -9.765366813010488306E-06 ) ) ;
#862 = EDGE_LOOP ( 'NONE', ( #868, #436 ) ) ;
#863 = CARTESIAN_POINT ( 'NONE',  ( -6.034495712661663451E-05, 0.5422350814855805279, 57.49999023463318792 ) ) ;
#864 = LINE ( 'NONE', #315, #836 ) ;
#865 = CARTESIAN_POINT ( 'NONE',  ( -6.034495712692280643E-05, 31.00731804264020397, -52.50000976536681918 ) ) ;
#866 = ORIENTED_EDGE ( 'NONE', *, *, #613, .F. ) ;
#867 = B_SPLINE_CURVE_WITH_KNOTS ( 'NONE', 2,
 ( #816, #574, #349 ),
 .UNSPECIFIED., .F., .F.,
 ( 3, 3 ),
 ( 0.005805770853396939948, 1.000000000000000000 ),
 .UNSPECIFIED. ) ;
#868 = ORIENTED_EDGE ( 'NONE', *, *, #69, .T. ) ;
#869 = CIRCLE ( 'NONE', #76, 25.00000000000000000 ) ;
#870 = DIRECTION ( 'NONE',  ( -0.2249510543438584531, 0.9743700647852368002, 0.000000000000000000 ) ) ;
#871 = CARTESIAN_POINT ( 'NONE',  ( 53.72985625356236739, 16.02567605929295169, -20.47795063635641455 ) ) ;
#872 = ORIENTED_EDGE ( 'NONE', *, *, #682, .F. ) ;
#873 = CIRCLE ( 'NONE', #447, 25.00000000000000000 ) ;
#874 = CONICAL_SURFACE ( 'NONE', #1001, 35.00000000000000000, 0.7853981633974461696 ) ;
#875 = VERTEX_POINT ( 'NONE', #45 ) ;
#876 = EDGE_CURVE ( 'NONE', #364, #210, #504, .T. ) ;
#877 = ADVANCED_FACE ( 'NONE', ( #122 ), #280, .T. ) ;
#878 = DIRECTION ( 'NONE',  ( 0.000000000000000000, 0.000000000000000000, 1.000000000000000000 ) ) ;
#879 = CARTESIAN_POINT ( 'NONE',  ( 54.21727040076597604, 13.05929215840665947, -19.15023291834436492 ) ) ;
#880 = ORIENTED_EDGE ( 'NONE', *, *, #224, .F. ) ;
#881 = ORIENTED_EDGE ( 'NONE', *, *, #167, .F. ) ;
#882 = DIRECTION ( 'NONE',  ( 0.7981262456937371352, 0.1842619626331443439, -0.5736218484867902090 ) ) ;
#883 = PRODUCT_DEFINITION ( 'UNKNOWN', '', #825, #212 ) ;
#884 = DIRECTION ( 'NONE',  ( 0.000000000000000000, 0.000000000000000000, 1.000000000000000000 ) ) ;
#885 = CARTESIAN_POINT ( 'NONE',  ( -6.034495713365836499E-05, 31.00731804264020397, -9.765366813010488306E-06 ) ) ;
#886 = EDGE_LOOP ( 'NONE', ( #554, #823, #666, #313 ) ) ;
#887 = PERSON_AND_ORGANIZATION_ROLE ( 'design_supplier' ) ;
#888 = DIRECTION ( 'NONE',  ( 0.2249510543438584531, -0.9743700647852368002, 0.000000000000000000 ) ) ;
#889 = CARTESIAN_POINT ( 'NONE',  ( -6.034495712661663451E-05, 0.5422350814855805279, 57.49999023463318792 ) ) ;
#890 = EDGE_LOOP ( 'NONE', ( #419, #609, #872, #427, #445, #598, #943, #675, #31, #491, #627, #343 ) ) ;
#891 = PERSON_AND_ORGANIZATION ( #918, #129 ) ;
#892 = AXIS2_PLACEMENT_3D ( 'NONE', #603, #221, #439 ) ;
#893 = EDGE_CURVE ( 'NONE', #516, #530, #451, .T. ) ;
#894 = DIRECTION ( 'NONE',  ( 0.000000000000000000, -1.000000000000000000, 0.000000000000000000 ) ) ;
#895 = CARTESIAN_POINT ( 'NONE',  ( -92.34547208533824403, -20.77738308576090276, -102.3185401938750232 ) ) ;
#896 = VECTOR ( 'NONE', #324, 1000.000000000000114 ) ;
#897 = ORIENTED_EDGE ( 'NONE', *, *, #192, .F. ) ;
#898 = SECURITY_CLASSIFICATION_LEVEL ( 'unclassified' ) ;
#899 = EDGE_CURVE ( 'NONE', #42, #656, #425, .T. ) ;
#900 = CARTESIAN_POINT ( 'NONE',  ( -6.034495713365836499E-05, -18.99268195735979958, -9.765366813010488306E-06 ) ) ;
#901 = DIRECTION ( 'NONE',  ( 0.000000000000000000, 0.000000000000000000, 1.000000000000000000 ) ) ;
#902 = ORIENTED_EDGE ( 'NONE', *, *, #434, .F. ) ;
#903 = LINE ( 'NONE', #204, #53 ) ;
#904 = CIRCLE ( 'NONE', #738, 35.00000000000000000 ) ;
#905 = CARTESIAN_POINT ( 'NONE',  ( 46.03657130299997391, -10.08615879259181725, 34.45109393988928304 ) ) ;
#906 = ORIENTED_EDGE ( 'NONE', *, *, #683, .T. ) ;
#907 = EDGE_CURVE ( 'NONE', #361, #231, #873, .T. ) ;
#908 = MANIFOLD_SOLID_BREP ( 'NONE', #771 ) ;
#909 = CIRCLE ( 'NONE', #658, 35.00000000000000000 ) ;
#910 = DIRECTION ( 'NONE',  ( 1.000000000000000000, 0.000000000000000000, 1.224646799147350002E-16 ) ) ;
#911 = PLANE ( 'NONE',  #95 ) ;
#912 = CIRCLE ( 'NONE', #39, 57.49999999999999289 ) ;
#913 = ORIENTED_EDGE ( 'NONE', *, *, #510, .F. ) ;
#914 = APPLICATION_CONTEXT ( 'configuration controlled 3d designs of mechanical parts and assemblies' ) ;
#915 = DIRECTION ( 'NONE',  ( 0.000000000000000000, -1.000000000000000000, 0.000000000000000000 ) ) ;
#916 = EDGE_CURVE ( 'NONE', #106, #509, #903, .T. ) ;
#917 = DIRECTION ( 'NONE',  ( 0.000000000000000000, 1.000000000000000000, 0.000000000000000000 ) ) ;
#918 = PERSON ( 'UNSPECIFIED', 'UNSPECIFIED', 'UNSPECIFIED', ('UNSPECIFIED'), ('UNSPECIFIED'), ('UNSPECIFIED') ) ;
#919 = ORIENTED_EDGE ( 'NONE', *, *, #758, .T. ) ;
#920 = DIRECTION ( 'NONE',  ( -0.2249510543438584254, -0.9743700647852366892, 0.000000000000000000 ) ) ;
#921 = DIRECTION ( 'NONE',  ( 1.000000000000000000, 0.000000000000000000, 1.224646799147350002E-16 ) ) ;
#922 = ORIENTED_EDGE ( 'NONE', *, *, #267, .T. ) ;
#923 = AXIS2_PLACEMENT_3D ( 'NONE', #759, #291, #208 ) ;
#924 = CIRCLE ( 'NONE', #114, 50.00000000000002132 ) ;
#925 = AXIS2_PLACEMENT_3D ( 'NONE', #201, #508, #995 ) ;
#926 = CONICAL_SURFACE ( 'NONE', #892, 25.00000000000000000, 0.7853981633974574939 ) ;
#927 = CARTESIAN_POINT ( 'NONE',  ( -6.034495713365836499E-05, -23.99268195735979603, -9.765366813010488306E-06 ) ) ;
#928 = ORIENTED_EDGE ( 'NONE', *, *, #399, .F. ) ;
#929 = DIRECTION ( 'NONE',  ( 0.000000000000000000, 0.000000000000000000, 1.000000000000000000 ) ) ;
#930 = EDGE_CURVE ( 'NONE', #710, #853, #268, .T. ) ;
#931 = CARTESIAN_POINT ( 'NONE',  ( -6.034495713365836499E-05, -28.99268195735979958, -9.765366813010488306E-06 ) ) ;
#932 = CYLINDRICAL_SURFACE ( 'NONE', #15, 30.00000000000000711 ) ;
#933 = ORIENTED_EDGE ( 'NONE', *, *, #149, .F. ) ;
#934 = DIRECTION ( 'NONE',  ( 0.000000000000000000, 0.000000000000000000, -1.000000000000000000 ) ) ;
#935 = DIRECTION ( 'NONE',  ( 0.000000000000000000, 1.000000000000000000, 0.000000000000000000 ) ) ;
#936 = ORIENTED_EDGE ( 'NONE', *, *, #279, .F. ) ;
#937 = CONICAL_SURFACE ( 'NONE', #498, 35.00000000000000000, 0.7853981633974461696 ) ;
#938 = CARTESIAN_POINT ( 'NONE',  ( 93.02020455845547531, -17.85427289140519846, 102.3185206631413990 ) ) ;
#939 = AXIS2_PLACEMENT_3D ( 'NONE', #992, #677, #308 ) ;
#940 = CIRCLE ( 'NONE', #429, 57.49999999999999289 ) ;
#941 = CARTESIAN_POINT ( 'NONE',  ( -53.72997694347662900, 16.02567605929295169, 20.47793110562278684 ) ) ;
#942 = DIRECTION ( 'NONE',  ( -0.2249510543438584531, 0.9743700647852368002, 0.000000000000000000 ) ) ;
#943 = ORIENTED_EDGE ( 'NONE', *, *, #549, .T. ) ;
#944 = DIRECTION ( 'NONE',  ( 0.000000000000000000, 0.000000000000000000, 1.000000000000000000 ) ) ;
#945 = EDGE_LOOP ( 'NONE', ( #476, #993, #271, #133 ) ) ;
#946 = EDGE_CURVE ( 'NONE', #486, #20, #644, .T. ) ;
#947 = ORIENTED_EDGE ( 'NONE', *, *, #104, .T. ) ;
#948 = DIRECTION ( 'NONE',  ( 0.000000000000000000, 1.000000000000000000, 0.000000000000000000 ) ) ;
#949 = CARTESIAN_POINT ( 'NONE',  ( -34.97408491886115200, -7.532154708272383203, -49.23395384901605354 ) ) ;
#950 = VERTEX_POINT ( 'NONE', #186 ) ;
#951 = EDGE_CURVE ( 'NONE', #238, #245, #726, .T. ) ;
#952 = EDGE_LOOP ( 'NONE', ( #222, #734, #928, #552 ) ) ;
#953 = AXIS2_PLACEMENT_3D ( 'NONE', #134, #311, #769 ) ;
#954 = DIRECTION ( 'NONE',  ( 0.9743700647852366892, 0.2249510543438584254, 0.000000000000000000 ) ) ;
#955 = CARTESIAN_POINT ( 'NONE',  ( 18.68375991107149048, -0.6923523809586010769, 57.49999023463313819 ) ) ;
#956 = DIRECTION ( 'NONE',  ( 8.659560562354908206E-17, -0.7071067811865489050, 0.7071067811865460184 ) ) ;
#957 = ORIENTED_EDGE ( 'NONE', *, *, #279, .T. ) ;
#958 = CARTESIAN_POINT ( 'NONE',  ( -6.034495713365836499E-05, 31.00731804264020397, -57.50000976536681918 ) ) ;
#959 = B_SPLINE_CURVE_WITH_KNOTS ( 'NONE', 2,
 ( #377, #832, #448 ),
 .UNSPECIFIED., .F., .F.,
 ( 3, 3 ),
 ( 0.005805770853396939948, 1.000000000000000000 ),
 .UNSPECIFIED. ) ;
#960 = CARTESIAN_POINT ( 'NONE',  ( -54.21739109068023765, 13.05929215840665947, 19.15021338761073721 ) ) ;
#961 = CARTESIAN_POINT ( 'NONE',  ( -93.02032524836974403, -17.85427289140519846, -102.3185401938750232 ) ) ;
#962 = ORIENTED_EDGE ( 'NONE', *, *, #762, .T. ) ;
#963 = DATE_TIME_ROLE ( 'creation_date' ) ;
#964 = CARTESIAN_POINT ( 'NONE',  ( -93.02032524836974403, -17.85427289140519846, -102.3185401938750232 ) ) ;
#965 = DIRECTION ( 'NONE',  ( 0.000000000000000000, 0.000000000000000000, 1.000000000000000000 ) ) ;
#966 = ORIENTED_EDGE ( 'NONE', *, *, #907, .F. ) ;
#967 = TOROIDAL_SURFACE ( 'NONE', #523, 52.50000000000000711, 5.000000000000000000 ) ;
#968 = CARTESIAN_POINT ( 'NONE',  ( 53.24934205103906493, 15.91474061454624334, -17.08762673836231727 ) ) ;
#969 = DIRECTION ( 'NONE',  ( 0.000000000000000000, 0.000000000000000000, 1.000000000000000000 ) ) ;
#970 = ADVANCED_FACE ( 'NONE', ( #791, #5 ), #688, .F. ) ;
#971 = ORIENTED_EDGE ( 'NONE', *, *, #792, .T. ) ;
#972 = APPROVAL_DATE_TIME ( #797, #11 ) ;
#973 = CIRCLE ( 'NONE', #219, 52.50000000000000711 ) ;
#974 = DIRECTION ( 'NONE',  ( 0.2249510543438584254, -0.9743700647852366892, 0.000000000000000000 ) ) ;
#975 = DIRECTION ( 'NONE',  ( 0.000000000000000000, 0.000000000000000000, 1.000000000000000000 ) ) ;
#976 = EDGE_CURVE ( 'NONE', #530, #210, #6, .T. ) ;
#977 = VERTEX_POINT ( 'NONE', #784 ) ;
#978 = DIRECTION ( 'NONE',  ( 0.000000000000000000, 0.000000000000000000, 1.000000000000000000 ) ) ;
#979 = PLANE ( 'NONE',  #369 ) ;
#980 = EDGE_CURVE ( 'NONE', #364, #796, #924, .T. ) ;
#981 = EDGE_CURVE ( 'NONE', #561, #530, #503, .T. ) ;
#982 = ORIENTED_EDGE ( 'NONE', *, *, #815, .T. ) ;
#983 = CARTESIAN_POINT ( 'NONE',  ( -6.034495713365836499E-05, 3.621147404865752595, -57.50000976536681918 ) ) ;
#984 = EDGE_LOOP ( 'NONE', ( #99, #348, #543, #541 ) ) ;
#985 = LOCAL_TIME ( 15, 22, 50.00000000000000000, #729 ) ;
#986 = AXIS2_PLACEMENT_3D ( 'NONE', #813, #51, #965 ) ;
#987 = EDGE_CURVE ( 'NONE', #586, #773, #940, .T. ) ;
#988 = CARTESIAN_POINT ( 'NONE',  ( -3.773942441486038302, -0.3290342516611675650, -635.0000097653668263 ) ) ;
#989 = DIRECTION ( 'NONE',  ( 0.000000000000000000, 0.000000000000000000, 1.000000000000000000 ) ) ;
#990 = ORIENTED_EDGE ( 'NONE', *, *, #55, .T. ) ;
#991 = CARTESIAN_POINT ( 'NONE',  ( 92.34535139542396109, -20.77738308576090276, 102.3185206631413990 ) ) ;
#992 = CARTESIAN_POINT ( 'NONE',  ( 41.95194441137571317, -6.064236047319537803, 27.47587966722954178 ) ) ;
#993 = ORIENTED_EDGE ( 'NONE', *, *, #269, .F. ) ;
#994 = EDGE_CURVE ( 'NONE', #668, #338, #587, .T. ) ;
#995 = DIRECTION ( 'NONE',  ( -0.9743700647852368002, -0.2249510543438585641, 0.000000000000000000 ) ) ;
#996 = CARTESIAN_POINT ( 'NONE',  ( -93.02032524836974403, -17.85427289140519846, -605.0000097653667126 ) ) ;
#997 = ORIENTED_EDGE ( 'NONE', *, *, #172, .F. ) ;
#998 = ADVANCED_FACE ( 'NONE', ( #240 ), #395, .T. ) ;
#999 = DIRECTION ( 'NONE',  ( -0.000000000000000000, 1.000000000000000000, 0.000000000000000000 ) ) ;
#1000 = CIRCLE ( 'NONE', #499, 52.50000000000000711 ) ;
#1001 = AXIS2_PLACEMENT_3D ( 'NONE', #931, #915, #764 ) ;
#1002 = DIRECTION ( 'NONE',  ( 0.000000000000000000, 0.000000000000000000, 1.000000000000000000 ) ) ;
#1003 = FACE_OUTER_BOUND ( 'NONE', #752, .T. ) ;
#1004 = ORIENTED_EDGE ( 'NONE', *, *, #582, .F. ) ;
#1005 = CC_DESIGN_PERSON_AND_ORGANIZATION_ASSIGNMENT ( #694, #247, ( #93 ) ) ;
ENDSEC;
END-ISO-10303-21;
